<svg width="32" height="32" viewBox="0 0 32 32" fill="none" xmlns="http://www.w3.org/2000/svg">
<path fill-rule="evenodd" clip-rule="evenodd" d="M16 29.3333C23.3638 29.3333 29.3333 23.3638 29.3333 16C29.3333 8.63619 23.3638 2.66666 16 2.66666C8.63619 2.66666 2.66666 8.63619 2.66666 16C2.66666 23.3638 8.63619 29.3333 16 29.3333ZM17 10.6667C17 10.1144 16.5523 9.66666 16 9.66666C15.4477 9.66666 15 10.1144 15 10.6667V19.9149C14.981 19.9002 14.9617 19.8849 14.942 19.869C14.5118 19.5236 14.0004 19.0097 13.2407 18.2432L11.3769 16.3627C10.9881 15.9705 10.355 15.9676 9.96271 16.3564C9.57045 16.7452 9.56762 17.3783 9.9564 17.7706L11.8609 19.6921C12.5694 20.407 13.1603 21.0033 13.6896 21.4284C14.2449 21.8743 14.8284 22.2135 15.5393 22.3041C15.6923 22.3236 15.8461 22.3333 16 22.3333C16.1539 22.3333 16.3077 22.3236 16.4607 22.3041C17.1716 22.2135 17.7551 21.8743 18.3103 21.4284C18.8397 21.0033 19.4306 20.407 20.1391 19.6921L22.0436 17.7706C22.4324 17.3783 22.4295 16.7452 22.0373 16.3564C21.645 15.9676 21.0118 15.9705 20.6231 16.3627L18.7593 18.2432C17.9996 19.0097 17.4882 19.5236 17.058 19.869C17.0383 19.8849 17.0189 19.9002 17 19.9149V10.6667Z" fill="url(#paint0_linear_107_441)"/>
<path fill-rule="evenodd" clip-rule="evenodd" d="M14.8571 29.3333C22.2209 29.3333 28.1905 23.3638 28.1905 16C28.1905 8.63619 22.2209 2.66666 14.8571 2.66666C7.49334 2.66666 1.5238 8.63619 1.5238 16C1.5238 23.3638 7.49334 29.3333 14.8571 29.3333ZM15.8571 10.6667C15.8571 10.1144 15.4094 9.66666 14.8571 9.66666C14.3049 9.66666 13.8571 10.1144 13.8571 10.6667V19.9149C13.8382 19.9002 13.8189 19.8849 13.7991 19.869C13.369 19.5236 12.8576 19.0097 12.0979 18.2432L10.2341 16.3627C9.84528 15.9705 9.21212 15.9676 8.81986 16.3564C8.4276 16.7452 8.42477 17.3783 8.81355 17.7706L10.718 19.6921C11.4265 20.407 12.0174 21.0033 12.5468 21.4284C13.102 21.8743 13.6856 22.2135 14.3965 22.3041C14.5494 22.3236 14.7033 22.3333 14.8571 22.3333C15.011 22.3333 15.1649 22.3236 15.3178 22.3041C16.0287 22.2135 16.6123 21.8743 17.1675 21.4284C17.6968 21.0033 18.2878 20.407 18.9963 19.6921L20.9007 17.7706C21.2895 17.3783 21.2867 16.7452 20.8944 16.3564C20.5022 15.9676 19.869 15.9705 19.4802 16.3627L17.6164 18.2432C16.8567 19.0097 16.3453 19.5236 15.9152 19.869C15.8954 19.8849 15.8761 19.9002 15.8571 19.9149V10.6667Z" fill="white"/>
<defs>
<linearGradient id="paint0_linear_107_441" x1="-10.647" y1="15.9803" x2="15.9803" y2="42.6076" gradientUnits="userSpaceOnUse">
<stop stop-color="#00FFAA"/>
<stop offset="0.530854" stop-color="#4579F5"/>
<stop offset="0.999815" stop-color="#9C42F5"/>
</linearGradient>
</defs>
</svg>
