<svg width="36" height="37" viewBox="0 0 36 37" fill="none" xmlns="http://www.w3.org/2000/svg">
<path fill-rule="evenodd" clip-rule="evenodd" d="M7.59161 30.2676C9.5631 31.7 12.3754 31.7 18 31.7C23.6246 31.7 26.4369 31.7 28.4084 30.2676C29.0451 29.805 29.605 29.2451 30.0676 28.6084C31.5 26.6369 31.5 23.8246 31.5 18.2C31.5 12.5754 31.5 9.76309 30.0676 7.7916C29.605 7.15489 29.0451 6.59496 28.4084 6.13236C26.4369 4.69999 23.6246 4.69999 18 4.69999C12.3754 4.69999 9.5631 4.69999 7.59161 6.13236C6.9549 6.59496 6.39497 7.15489 5.93237 7.7916C4.5 9.76309 4.5 12.5754 4.5 18.2C4.5 23.8246 4.5 26.6369 5.93237 28.6084C6.39497 29.2451 6.9549 29.805 7.59161 30.2676ZM10.3479 15.26C9.92187 14.8357 9.51883 14.3175 9.4089 13.6275C9.38635 13.486 9.375 13.3431 9.375 13.1999C9.375 13.0566 9.38635 12.9137 9.4089 12.7722C9.51883 12.0823 9.92186 11.5641 10.3479 11.1397C10.7585 10.7307 11.3278 10.2793 11.988 9.75592L13.801 8.31834C14.2879 7.93232 14.9955 8.01406 15.3815 8.50091C15.7675 8.98776 15.6858 9.69537 15.199 10.0814L13.436 11.4792C13.1492 11.7066 12.9028 11.9023 12.6907 12.0749L24.5 12.0749C25.1213 12.0749 25.625 12.5785 25.625 13.1999C25.625 13.8212 25.1213 14.3249 24.5 14.3249L12.6907 14.3249C12.9028 14.4974 13.1492 14.6931 13.436 14.9205L15.199 16.3183C15.6858 16.7044 15.7675 17.412 15.3815 17.8988C14.9955 18.3857 14.2879 18.4674 13.801 18.0814L11.988 16.6438C11.3278 16.1205 10.7585 15.6691 10.3479 15.26ZM11.4998 22.075C10.8784 22.075 10.3748 22.5787 10.3748 23.2C10.3748 23.8213 10.8784 24.325 11.4998 24.325L23.3091 24.325C23.0969 24.4976 22.8505 24.6932 22.5638 24.9206L20.8008 26.3185C20.3139 26.7045 20.2322 27.4121 20.6182 27.899C21.0043 28.3858 21.7119 28.4675 22.1987 28.0815L24.0118 26.644C24.6719 26.1206 25.2413 25.6692 25.6519 25.2602C26.0779 24.8358 26.4809 24.3176 26.5909 23.6277C26.6134 23.4861 26.6248 23.3432 26.6248 23.2C26.6248 23.0568 26.6134 22.9139 26.5909 22.7723C26.4809 22.0824 26.0779 21.5642 25.6519 21.1398C25.2413 20.7308 24.6719 20.2794 24.0118 19.7561L22.1987 18.3185C21.7119 17.9324 21.0043 18.0142 20.6182 18.501C20.2322 18.9879 20.3139 19.6955 20.8008 20.0815L22.5638 21.4794C22.8505 21.7067 23.0969 21.9024 23.3091 22.075L11.4998 22.075Z" fill="white"/>
</svg>
