<svg width="32" height="32" viewBox="0 0 32 32" fill="none" xmlns="http://www.w3.org/2000/svg">
<path d="M18.2311 6.94209C15.9217 5.6253 14.1279 4.60247 12.671 3.93893C11.2086 3.27291 9.93926 2.89678 8.70496 3.0249C6.74601 3.22824 4.96266 4.24326 3.80049 5.82297C3.06642 6.82079 2.76077 8.10147 2.61348 9.68698C2.46678 11.2662 2.46679 13.3129 2.4668 15.9451V16.0549C2.46679 18.6871 2.46678 20.7339 2.61348 22.313C2.76077 23.8985 3.06642 25.1792 3.80049 26.177C4.96266 27.7567 6.74601 28.7718 8.70496 28.9751C9.93926 29.1032 11.2086 28.7271 12.671 28.0611C14.1279 27.3975 15.9217 26.3747 18.2311 25.0579L18.3248 25.0045C20.6341 23.6878 22.428 22.665 23.7385 21.7506C25.0527 20.8336 26.0215 19.9337 26.5294 18.807C27.3348 17.0205 27.3348 14.9795 26.5294 13.193C26.0215 12.0663 25.0527 11.1664 23.7385 10.2494C22.428 9.33504 20.6341 8.31219 18.3248 6.99551L18.2311 6.94209Z" fill="url(#paint0_linear_573_2895)"/>
<path d="M20.0983 6.94209C17.7889 5.6253 15.995 4.60247 14.5382 3.93893C13.0758 3.27291 11.8064 2.89678 10.5722 3.0249C8.6132 3.22824 6.82985 4.24326 5.66768 5.82297C4.93361 6.82079 4.62796 8.10147 4.48067 9.68698C4.33397 11.2662 4.33398 13.3129 4.33398 15.9451V16.0549C4.33398 18.6871 4.33397 20.7339 4.48067 22.313C4.62796 23.8985 4.9336 25.1792 5.66768 26.177C6.82985 27.7567 8.6132 28.7718 10.5721 28.9751C11.8064 29.1032 13.0758 28.7271 14.5382 28.0611C15.995 27.3975 17.7889 26.3747 20.0983 25.0579L20.192 25.0045C22.5013 23.6878 24.2952 22.665 25.6057 21.7506C26.9199 20.8336 27.8886 19.9337 28.3966 18.807C29.202 17.0205 29.202 14.9795 28.3966 13.193C27.8886 12.0663 26.9199 11.1664 25.6057 10.2494C24.2952 9.33504 22.5013 8.31219 20.192 6.99551L20.0983 6.94209Z" fill="white"/>
<defs>
<linearGradient id="paint0_linear_573_2895" x1="-9.84832" y1="15.9808" x2="16.0773" y2="40.5769" gradientUnits="userSpaceOnUse">
<stop stop-color="#00FFAA"/>
<stop offset="0.530854" stop-color="#4579F5"/>
<stop offset="0.999815" stop-color="#9C42F5"/>
</linearGradient>
</defs>
</svg>
