<svg width="36" height="36" viewBox="0 0 36 36" fill="none" xmlns="http://www.w3.org/2000/svg">
<path fill-rule="evenodd" clip-rule="evenodd" d="M17.625 4.5C17.625 3.87868 17.1213 3.375 16.5 3.375C15.8787 3.375 15.375 3.87868 15.375 4.5V13.5H12C10.6065 13.5 9.90974 13.5 9.32674 13.5923C6.11755 14.1006 3.60062 16.6175 3.09234 19.8267C3 20.4097 3 21.1065 3 22.5C3 23.8935 3 24.5903 3.09234 25.1733C3.60062 28.3825 6.11755 30.8994 9.32674 31.4077C9.90974 31.5 10.6065 31.5 12 31.5H21C22.3935 31.5 23.0903 31.5 23.6733 31.4077C26.8825 30.8994 29.3994 28.3825 29.9077 25.1733C30 24.5903 30 23.8935 30 22.5C30 21.1065 30 20.4097 29.9077 19.8267C29.3994 16.6175 26.8825 14.1006 23.6733 13.5923C23.0903 13.5 22.3935 13.5 21 13.5H17.625V4.5ZM17.625 13.5H15.375V23.7157C14.891 23.2245 14.3156 22.5015 13.4783 21.4455L11.3815 18.801C10.9955 18.3142 10.2879 18.2325 9.80104 18.6185C9.31419 19.0045 9.23245 19.7121 9.61847 20.199L11.7579 22.8972C12.5576 23.9059 13.2176 24.7382 13.8083 25.3312C14.4144 25.9397 15.0872 26.4442 15.947 26.5812C16.1302 26.6103 16.3149 26.625 16.5 26.625C16.6851 26.625 16.8698 26.6103 17.053 26.5812C17.9128 26.4442 18.5856 25.9397 19.1917 25.3312C19.7824 24.7382 20.4424 23.9059 21.2421 22.8971L23.3815 20.199C23.7675 19.7121 23.6858 19.0045 23.199 18.6185C22.7121 18.2325 22.0045 18.3142 21.6185 18.801L19.5217 21.4455C18.6844 22.5015 18.109 23.2245 17.625 23.7157V13.5Z" fill="url(#paint0_linear_855_19393)"/>
<path fill-rule="evenodd" clip-rule="evenodd" d="M19.125 4.5C19.125 3.87868 18.6213 3.375 18 3.375C17.3787 3.375 16.875 3.87868 16.875 4.5V13.5H13.5C12.1065 13.5 11.4097 13.5 10.8267 13.5923C7.61755 14.1006 5.10062 16.6175 4.59234 19.8267C4.5 20.4097 4.5 21.1065 4.5 22.5C4.5 23.8935 4.5 24.5903 4.59234 25.1733C5.10062 28.3825 7.61755 30.8994 10.8267 31.4077C11.4097 31.5 12.1065 31.5 13.5 31.5H22.5C23.8935 31.5 24.5903 31.5 25.1733 31.4077C28.3825 30.8994 30.8994 28.3825 31.4077 25.1733C31.5 24.5903 31.5 23.8935 31.5 22.5C31.5 21.1065 31.5 20.4097 31.4077 19.8267C30.8994 16.6175 28.3825 14.1006 25.1733 13.5923C24.5903 13.5 23.8935 13.5 22.5 13.5H19.125V4.5ZM19.125 13.5H16.875V23.7157C16.391 23.2245 15.8156 22.5015 14.9783 21.4455L12.8815 18.801C12.4955 18.3142 11.7879 18.2325 11.301 18.6185C10.8142 19.0045 10.7325 19.7121 11.1185 20.199L13.2579 22.8972C14.0576 23.9059 14.7176 24.7382 15.3083 25.3312C15.9144 25.9397 16.5872 26.4442 17.447 26.5812C17.6302 26.6103 17.8149 26.625 18 26.625C18.1851 26.625 18.3698 26.6103 18.553 26.5812C19.4128 26.4442 20.0856 25.9397 20.6917 25.3312C21.2824 24.7382 21.9424 23.9059 22.7421 22.8971L24.8815 20.199C25.2675 19.7121 25.1858 19.0045 24.699 18.6185C24.2121 18.2325 23.5045 18.3142 23.1185 18.801L21.0217 21.4455C20.1844 22.5015 19.609 23.2245 19.125 23.7157V13.5Z" fill="white"/>
<defs>
<linearGradient id="paint0_linear_855_19393" x1="-10.4801" y1="17.4167" x2="17.58" y2="44.3544" gradientUnits="userSpaceOnUse">
<stop stop-color="#00FFAA"/>
<stop offset="0.530854" stop-color="#4579F5"/>
<stop offset="0.999815" stop-color="#9C42F5"/>
</linearGradient>
</defs>
</svg>
