<svg width="24" height="24" viewBox="0 0 24 24" fill="none" xmlns="http://www.w3.org/2000/svg">
<path fill-rule="evenodd" clip-rule="evenodd" d="M16.2955 9.60641L11.7275 15.6064C11.5395 15.8534 11.2485 15.9994 10.9385 16.0014H10.9315C10.6245 16.0014 10.3345 15.8594 10.1445 15.6174L7.71248 12.5104C7.37248 12.0764 7.44848 11.4474 7.88348 11.1074C8.31748 10.7664 8.94748 10.8424 9.28748 11.2784L10.9205 13.3644L14.7045 8.39541C15.0385 7.95641 15.6655 7.87041 16.1065 8.20541C16.5455 8.54041 16.6305 9.16741 16.2955 9.60641ZM12.0005 2.00098C6.47749 2.00098 2.00049 6.47798 2.00049 12.001C2.00049 17.523 6.47749 22.001 12.0005 22.001C17.5235 22.001 22.0005 17.523 22.0005 12.001C22.0005 6.47798 17.5235 2.00098 12.0005 2.00098Z" fill="#00F495"/>
<mask id="mask0_340_1663" style="mask-type:luminance" maskUnits="userSpaceOnUse" x="2" y="2" width="21" height="21">
<path fill-rule="evenodd" clip-rule="evenodd" d="M16.2955 9.60641L11.7275 15.6064C11.5395 15.8534 11.2485 15.9994 10.9385 16.0014H10.9315C10.6245 16.0014 10.3345 15.8594 10.1445 15.6174L7.71248 12.5104C7.37248 12.0764 7.44848 11.4474 7.88348 11.1074C8.31748 10.7664 8.94748 10.8424 9.28748 11.2784L10.9205 13.3644L14.7045 8.39541C15.0385 7.95641 15.6655 7.87041 16.1065 8.20541C16.5455 8.54041 16.6305 9.16741 16.2955 9.60641ZM12.0005 2.00098C6.47749 2.00098 2.00049 6.47798 2.00049 12.001C2.00049 17.523 6.47749 22.001 12.0005 22.001C17.5235 22.001 22.0005 17.523 22.0005 12.001C22.0005 6.47798 17.5235 2.00098 12.0005 2.00098Z" fill="white"/>
</mask>
<g mask="url(#mask0_340_1663)">
</g>
</svg>
