<svg width="20" height="14" viewBox="0 0 20 14" fill="none" xmlns="http://www.w3.org/2000/svg">
<path fill-rule="evenodd" clip-rule="evenodd" d="M5.40596 0.541656C2.61114 0.541656 0.464273 3.01701 0.859521 5.78375L1.05193 7.13064L2.2655 11.3781C2.6173 12.6094 3.74272 13.4583 5.02329 13.4583C5.99922 13.4583 6.90818 12.9621 7.43592 12.1411L7.7479 11.6559C8.80083 10.018 11.1951 10.018 12.248 11.6559L12.4388 11.9527C13.0421 12.8911 14.0811 13.4583 15.1966 13.4583C16.8281 13.4583 18.2114 12.2586 18.4421 10.6435L19.1364 5.78375C19.5316 3.01701 17.3848 0.541656 14.5899 0.541656C13.9473 0.541656 13.3119 0.676506 12.7247 0.937486L12.2822 1.13415C11.4278 1.5139 11.0819 1.66416 10.7334 1.73813C10.2485 1.84107 9.7474 1.84107 9.2625 1.73813C8.91403 1.66416 8.56812 1.5139 7.71368 1.13415L7.2712 0.937486C6.68399 0.676506 6.04855 0.541656 5.40596 0.541656ZM5.83127 3.87499C6.17645 3.87499 6.45627 4.15481 6.45627 4.49999V5.54166H7.49793C7.84311 5.54166 8.12293 5.82148 8.12293 6.16666C8.12293 6.51183 7.84311 6.79166 7.49793 6.79166H6.45627V7.83332C6.45627 8.1785 6.17645 8.45832 5.83127 8.45832C5.48609 8.45832 5.20627 8.1785 5.20627 7.83332V6.79166H4.1646C3.81942 6.79166 3.5396 6.51183 3.5396 6.16666C3.5396 5.82148 3.81942 5.54166 4.1646 5.54166H5.20627V4.49999C5.20627 4.15481 5.48609 3.87499 5.83127 3.87499ZM14.1647 5.33332C14.6249 5.33332 14.998 4.96023 14.998 4.49999C14.998 4.03975 14.6249 3.66666 14.1647 3.66666C13.7044 3.66666 13.3313 4.03975 13.3313 4.49999C13.3313 4.96023 13.7044 5.33332 14.1647 5.33332ZM12.498 6.99999C12.9582 6.99999 13.3313 6.62689 13.3313 6.16666C13.3313 5.70642 12.9582 5.33332 12.498 5.33332C12.0377 5.33332 11.6647 5.70642 11.6647 6.16666C11.6647 6.62689 12.0377 6.99999 12.498 6.99999ZM16.6647 6.16666C16.6647 6.62689 16.2916 6.99999 15.8313 6.99999C15.3711 6.99999 14.998 6.62689 14.998 6.16666C14.998 5.70642 15.3711 5.33332 15.8313 5.33332C16.2916 5.33332 16.6647 5.70642 16.6647 6.16666ZM14.1647 8.66666C14.6249 8.66666 14.998 8.29356 14.998 7.83332C14.998 7.37309 14.6249 6.99999 14.1647 6.99999C13.7044 6.99999 13.3313 7.37309 13.3313 7.83332C13.3313 8.29356 13.7044 8.66666 14.1647 8.66666Z" fill="white"/>
</svg>
