<svg width="20" height="20" viewBox="0 0 20 20" fill="none" xmlns="http://www.w3.org/2000/svg">
<path fill-rule="evenodd" clip-rule="evenodd" d="M1.18063 2.45401C1.10037 2.13296 0.775048 1.93777 0.454006 2.01803C0.132964 2.09829 -0.0622286 2.42361 0.018032 2.74466L0.858289 6.10568L1.64028 9.36847C1.97278 10.7559 2.23451 11.8479 2.54508 12.6963C2.86366 13.5665 3.25434 14.2421 3.88115 14.7601C3.93524 14.8048 3.99035 14.8483 4.04644 14.8905C4.69632 15.3793 5.44436 15.6018 6.36487 15.7087C7.26225 15.813 8.3852 15.813 9.81185 15.813H10.2859C11.5203 15.813 12.492 15.813 13.2748 15.7339C14.0766 15.6528 14.7363 15.4845 15.33 15.1128C15.6116 14.9365 15.8733 14.7301 16.1104 14.4974C16.6102 14.0067 16.9276 13.4043 17.1933 12.6435C17.4527 11.9007 17.6792 10.9558 17.9669 9.75546L17.9836 9.68575C18.1571 8.96204 18.3001 8.36544 18.3553 7.88221C18.4126 7.38065 18.3892 6.90309 18.1389 6.46705C18.0318 6.28055 17.8979 6.11079 17.7415 5.96319C17.3758 5.61809 16.9169 5.48404 16.4158 5.42289C15.9329 5.36398 15.3195 5.36399 14.5753 5.36401L1.90813 5.36401L1.18063 2.45401ZM7.19041 12.1863C7.19041 11.8554 7.45868 11.5872 7.7896 11.5872H12.5831C12.914 11.5872 13.1823 11.8554 13.1823 12.1863C13.1823 12.5173 12.914 12.7855 12.5831 12.7855H7.7896C7.45868 12.7855 7.19041 12.5173 7.19041 12.1863Z" fill="url(#paint0_linear_645_5123)"/>
<path d="M7.32706 18.5777C7.79151 18.5777 8.16802 18.2012 8.16802 17.7367C8.16802 17.2723 7.79151 16.8958 7.32706 16.8958C6.8626 16.8958 6.48609 17.2723 6.48609 17.7367C6.48609 18.2012 6.8626 18.5777 7.32706 18.5777Z" fill="url(#paint1_linear_645_5123)"/>
<path d="M12.3729 18.5777C12.8373 18.5777 13.2138 18.2012 13.2138 17.7367C13.2138 17.2723 12.8373 16.8958 12.3729 16.8958C11.9084 16.8958 11.5319 17.2723 11.5319 17.7367C11.5319 18.2012 11.9084 18.5777 12.3729 18.5777Z" fill="url(#paint2_linear_645_5123)"/>
<path fill-rule="evenodd" clip-rule="evenodd" d="M2.18063 2.45401C2.10037 2.13296 1.77505 1.93777 1.45401 2.01803C1.13296 2.09829 0.937771 2.42361 1.01803 2.74466L1.85829 6.10568L2.64028 9.36847C2.97278 10.7559 3.23451 11.8479 3.54508 12.6963C3.86366 13.5665 4.25434 14.2421 4.88115 14.7601C4.93524 14.8048 4.99035 14.8483 5.04644 14.8905C5.69632 15.3793 6.44436 15.6018 7.36487 15.7087C8.26225 15.813 9.3852 15.813 10.8119 15.813H11.2859C12.5203 15.813 13.492 15.813 14.2748 15.7339C15.0766 15.6528 15.7363 15.4845 16.33 15.1128C16.6116 14.9365 16.8733 14.7301 17.1104 14.4974C17.6102 14.0067 17.9276 13.4043 18.1933 12.6435C18.4527 11.9007 18.6792 10.9558 18.9669 9.75546L18.9836 9.68575C19.1571 8.96204 19.3001 8.36544 19.3553 7.88221C19.4126 7.38065 19.3892 6.90309 19.1389 6.46705C19.0318 6.28055 18.8979 6.11079 18.7415 5.96319C18.3758 5.61809 17.9169 5.48404 17.4158 5.42289C16.9329 5.36398 16.3195 5.36399 15.5753 5.36401L2.90813 5.36401L2.18063 2.45401ZM8.19041 12.1863C8.19041 11.8554 8.45868 11.5872 8.7896 11.5872H13.5831C13.914 11.5872 14.1823 11.8554 14.1823 12.1863C14.1823 12.5173 13.914 12.7855 13.5831 12.7855H8.7896C8.45868 12.7855 8.19041 12.5173 8.19041 12.1863Z" fill="white"/>
<path d="M8.32706 18.5777C8.79151 18.5777 9.16802 18.2012 9.16802 17.7367C9.16802 17.2723 8.79151 16.8958 8.32706 16.8958C7.8626 16.8958 7.48609 17.2723 7.48609 17.7367C7.48609 18.2012 7.8626 18.5777 8.32706 18.5777Z" fill="white"/>
<path d="M13.3729 18.5777C13.8373 18.5777 14.2138 18.2012 14.2138 17.7367C14.2138 17.2723 13.8373 16.8958 13.3729 16.8958C12.9084 16.8958 12.5319 17.2723 12.5319 17.7367C12.5319 18.2012 12.9084 18.5777 13.3729 18.5777Z" fill="white"/>
<defs>
<linearGradient id="paint0_linear_645_5123" x1="-9.17706" y1="10.2766" x2="7.28826" y2="28.5333" gradientUnits="userSpaceOnUse">
<stop stop-color="#00FFAA"/>
<stop offset="0.530854" stop-color="#4579F5"/>
<stop offset="0.999815" stop-color="#9C42F5"/>
</linearGradient>
<linearGradient id="paint1_linear_645_5123" x1="-9.17706" y1="10.2766" x2="7.28826" y2="28.5333" gradientUnits="userSpaceOnUse">
<stop stop-color="#00FFAA"/>
<stop offset="0.530854" stop-color="#4579F5"/>
<stop offset="0.999815" stop-color="#9C42F5"/>
</linearGradient>
<linearGradient id="paint2_linear_645_5123" x1="-9.17706" y1="10.2766" x2="7.28826" y2="28.5333" gradientUnits="userSpaceOnUse">
<stop stop-color="#00FFAA"/>
<stop offset="0.530854" stop-color="#4579F5"/>
<stop offset="0.999815" stop-color="#9C42F5"/>
</linearGradient>
</defs>
</svg>
