<svg width="20" height="20" viewBox="0 0 20 20" fill="none" xmlns="http://www.w3.org/2000/svg">
<g clip-path="url(#clip0_645_5131)">
<path fill-rule="evenodd" clip-rule="evenodd" d="M6.06939 2.29736C6.92221 -0.690915 11.1572 -0.690915 12.01 2.29736C12.2823 3.25166 13.2628 3.81771 14.2254 3.57641C17.2397 2.82084 19.3572 6.48842 17.1957 8.72112C16.5054 9.43412 16.5054 10.5662 17.1957 11.2792C19.3572 13.5119 17.2397 17.1795 14.2254 16.4239C13.2628 16.1826 12.2823 16.7487 12.01 17.703C11.1572 20.6913 6.92221 20.6913 6.06939 17.703C5.79705 16.7487 4.81662 16.1826 3.854 16.4239C0.839676 17.1795 -1.27781 13.5119 0.883704 11.2792C1.57398 10.5662 1.57398 9.43412 0.883705 8.72112C-1.27781 6.48842 0.839675 2.82084 3.854 3.57641C4.81662 3.81771 5.79705 3.25166 6.06939 2.29736ZM12.8532 7.90029C13.0742 7.63512 13.0383 7.24102 12.7732 7.02004C12.508 6.79906 12.1139 6.83489 11.8929 7.10006L9.00661 10.5636C8.69762 10.9344 8.50786 11.1598 8.35155 11.3009C8.27905 11.3664 8.23605 11.3925 8.21544 11.4024C8.21125 11.4045 8.20827 11.4057 8.20638 11.4064C8.20449 11.4057 8.20151 11.4045 8.19733 11.4024C8.17671 11.3925 8.13371 11.3664 8.06122 11.3009C7.9049 11.1598 7.71514 10.9344 7.40615 10.5636L6.18652 9.10006C5.96554 8.83489 5.57144 8.79906 5.30626 9.02004C5.04109 9.24102 5.00526 9.63512 5.22624 9.90029L6.47249 11.3958C6.74621 11.7243 6.99297 12.0205 7.22347 12.2287C7.47425 12.4551 7.79014 12.6568 8.20638 12.6568C8.62262 12.6568 8.93851 12.4551 9.18929 12.2287C9.41979 12.0205 9.66654 11.7243 9.94026 11.3958L12.8532 7.90029Z" fill="url(#paint0_linear_645_5131)"/>
<path fill-rule="evenodd" clip-rule="evenodd" d="M7.03033 2.29715C7.88314 -0.691121 12.1181 -0.691121 12.9709 2.29715C13.2433 3.25145 14.2237 3.8175 15.1863 3.57621C18.2006 2.82063 20.3181 6.48822 18.1566 8.72091C17.4663 9.43392 17.4663 10.566 18.1566 11.279C20.3181 13.5117 18.2006 17.1793 15.1863 16.4237C14.2237 16.1824 13.2433 16.7485 12.9709 17.7028C12.1181 20.6911 7.88314 20.6911 7.03033 17.7028C6.75799 16.7485 5.77756 16.1824 4.81494 16.4237C1.80061 17.1793 -0.31687 13.5117 1.84464 11.279C2.53492 10.566 2.53492 9.43392 1.84464 8.72091C-0.316869 6.48822 1.80061 2.82063 4.81494 3.57621C5.77756 3.8175 6.75799 3.25145 7.03033 2.29715ZM13.8141 7.90009C14.0351 7.63491 13.9993 7.24081 13.7341 7.01983C13.4689 6.79886 13.0748 6.83468 12.8538 7.09986L9.96755 10.5634C9.65855 10.9342 9.4688 11.1596 9.31248 11.3007C9.23999 11.3662 9.19699 11.3923 9.17637 11.4022C9.17218 11.4043 9.1692 11.4055 9.16732 11.4062C9.16543 11.4055 9.16245 11.4043 9.15826 11.4022C9.13765 11.3923 9.09465 11.3662 9.02215 11.3007C8.86583 11.1596 8.67608 10.9342 8.36709 10.5634L7.14746 9.09986C6.92648 8.83468 6.53237 8.79886 6.2672 9.01983C6.00203 9.24081 5.9662 9.63492 6.18718 9.90009L7.43343 11.3956C7.70715 11.7241 7.95391 12.0203 8.18441 12.2284C8.43519 12.4549 8.75108 12.6566 9.16732 12.6566C9.58356 12.6566 9.89944 12.4549 10.1502 12.2284C10.3807 12.0203 10.6275 11.7241 10.9012 11.3956L13.8141 7.90009Z" fill="white"/>
</g>
<defs>
<linearGradient id="paint0_linear_645_5131" x1="-9.02634" y1="9.98548" x2="10.7424" y2="27.9564" gradientUnits="userSpaceOnUse">
<stop stop-color="#00FFAA"/>
<stop offset="0.530854" stop-color="#4579F5"/>
<stop offset="0.999815" stop-color="#9C42F5"/>
</linearGradient>
<clipPath id="clip0_645_5131">
<rect width="20" height="20" fill="white"/>
</clipPath>
</defs>
</svg>
