<svg width="33" height="32" viewBox="0 0 33 32" fill="none" xmlns="http://www.w3.org/2000/svg">
<path fill-rule="evenodd" clip-rule="evenodd" d="M0.542877 16C0.542877 8.08391 6.96013 1.66666 14.8762 1.66666C22.7923 1.66666 29.2095 8.08391 29.2095 16C29.2095 23.9161 22.7923 30.3333 14.8762 30.3333C6.96013 30.3333 0.542877 23.9161 0.542877 16ZM19.1258 11.7504C19.5163 12.1409 19.5163 12.7741 19.1258 13.1646L11.5833 20.7071C11.1928 21.0976 10.5596 21.0976 10.1691 20.7071C9.77858 20.3166 9.77858 19.6834 10.1691 19.2929L17.7116 11.7504C18.1021 11.3599 18.7353 11.3599 19.1258 11.7504ZM10.8762 13.3333C10.1398 13.3333 9.54288 12.7364 9.54288 12C9.54288 11.2636 10.1398 10.6667 10.8762 10.6667C11.6126 10.6667 12.2095 11.2636 12.2095 12C12.2095 12.7364 11.6126 13.3333 10.8762 13.3333ZM18.8762 21.3333C18.1398 21.3333 17.5429 20.7364 17.5429 20C17.5429 19.2636 18.1398 18.6667 18.8762 18.6667C19.6126 18.6667 20.2095 19.2636 20.2095 20C20.2095 20.7364 19.6126 21.3333 18.8762 21.3333Z" fill="url(#paint0_linear_107_437)"/>
<path fill-rule="evenodd" clip-rule="evenodd" d="M2.66666 16C2.66666 8.08391 9.08391 1.66666 17 1.66666C24.9161 1.66666 31.3333 8.08391 31.3333 16C31.3333 23.9161 24.9161 30.3333 17 30.3333C9.08391 30.3333 2.66666 23.9161 2.66666 16ZM21.2496 11.7504C21.6401 12.1409 21.6401 12.7741 21.2496 13.1646L13.7071 20.7071C13.3166 21.0976 12.6834 21.0976 12.2929 20.7071C11.9024 20.3166 11.9024 19.6834 12.2929 19.2929L19.8354 11.7504C20.2259 11.3599 20.859 11.3599 21.2496 11.7504ZM13 13.3333C12.2636 13.3333 11.6667 12.7364 11.6667 12C11.6667 11.2636 12.2636 10.6667 13 10.6667C13.7364 10.6667 14.3333 11.2636 14.3333 12C14.3333 12.7364 13.7364 13.3333 13 13.3333ZM21 21.3333C20.2636 21.3333 19.6667 20.7364 19.6667 20C19.6667 19.2636 20.2636 18.6667 21 18.6667C21.7364 18.6667 22.3333 19.2636 22.3333 20C22.3333 20.7364 21.7364 21.3333 21 21.3333Z" fill="white"/>
<defs>
<linearGradient id="paint0_linear_107_437" x1="-13.7693" y1="15.9788" x2="14.855" y2="44.6031" gradientUnits="userSpaceOnUse">
<stop stop-color="#00FFAA"/>
<stop offset="0.530854" stop-color="#4579F5"/>
<stop offset="0.999815" stop-color="#9C42F5"/>
</linearGradient>
</defs>
</svg>
