<svg width="34" height="32" viewBox="0 0 34 32" fill="none" xmlns="http://www.w3.org/2000/svg">
<path d="M8.64321 5.30286L12.6121 17.4908C12.6219 17.5208 12.633 17.5501 12.6453 17.5786V20.2667C12.6453 20.819 13.093 21.2667 13.6453 21.2667C14.1976 21.2667 14.6453 20.819 14.6453 20.2667V4.77564C15.0392 4.6008 15.4675 4.50069 15.9194 4.43993C16.7124 4.33331 17.7114 4.33334 18.9093 4.33338L25.0528 4.33338C28.8778 4.33338 31.9787 7.43422 31.9787 11.2593C31.9787 12.3683 31.3427 13.379 30.3429 13.8589L29.6931 14.1708C28.1584 14.9075 28.1584 17.0926 29.6931 17.8293L30.3429 18.1412C31.3427 18.6211 31.9787 19.6318 31.9787 20.7408C31.9787 24.5659 28.8778 27.6667 25.0528 27.6667H13.6476C14.1988 27.6655 14.6453 27.2182 14.6453 26.6667V25.0667C14.6453 24.5144 14.1976 24.0667 13.6453 24.0667C13.093 24.0667 12.6453 24.5144 12.6453 25.0667V26.6667C12.6453 27.2179 13.0913 27.665 13.6421 27.6667L9.49022 27.6667C7.166 27.6667 5.02027 26.4204 3.86871 24.4015L3.61891 23.9635C3.51015 23.7729 3.42634 23.569 3.36953 23.357C3.1144 22.4049 3.42792 21.3908 4.1759 20.7487L4.87585 20.1479C6.1676 19.0392 5.60203 16.9284 3.92896 16.6141L3.22055 16.481C2.13064 16.2762 1.25475 15.4645 0.967725 14.3934C-0.0222789 10.6986 2.17035 6.90087 5.86509 5.91087L5.91639 5.89712C6.81121 5.65733 7.55784 5.45725 8.1782 5.35919C8.3346 5.33446 8.48951 5.31501 8.64321 5.30286Z" fill="url(#paint0_linear_107_414)"/>
<path d="M10.2463 5.30286L14.2152 17.4908C14.225 17.5208 14.2361 17.5501 14.2484 17.5786V20.2667C14.2484 20.819 14.6961 21.2667 15.2484 21.2667C15.8006 21.2667 16.2484 20.819 16.2484 20.2667V4.77564C16.6423 4.6008 17.0705 4.50069 17.5224 4.43993C18.3155 4.33331 19.3144 4.33334 20.5124 4.33338L26.6558 4.33338C30.4809 4.33338 33.5818 7.43422 33.5818 11.2593C33.5818 12.3683 32.9458 13.379 31.946 13.8589L31.2962 14.1708C29.7615 14.9075 29.7615 17.0926 31.2962 17.8293L31.946 18.1412C32.9458 18.6211 33.5818 19.6318 33.5818 20.7408C33.5818 24.5659 30.4809 27.6667 26.6558 27.6667H15.2506C15.8019 27.6655 16.2484 27.2182 16.2484 26.6667V25.0667C16.2484 24.5144 15.8006 24.0667 15.2484 24.0667C14.6961 24.0667 14.2484 24.5144 14.2484 25.0667V26.6667C14.2484 27.2179 14.6943 27.665 15.2451 27.6667L11.0933 27.6667C8.76907 27.6667 6.62334 26.4204 5.47178 24.4015L5.22198 23.9635C5.11322 23.7729 5.02941 23.569 4.9726 23.357C4.71747 22.4049 5.03099 21.3908 5.77897 20.7487L6.47892 20.1479C7.77067 19.0392 7.2051 16.9284 5.53203 16.6141L4.82362 16.481C3.73371 16.2762 2.85782 15.4645 2.57079 14.3934C1.58079 10.6986 3.77342 6.90087 7.46816 5.91087L7.51946 5.89712C8.41428 5.65733 9.16091 5.45725 9.78127 5.35919C9.93767 5.33446 10.0926 5.31501 10.2463 5.30286Z" fill="white"/>
<defs>
<linearGradient id="paint0_linear_107_414" x1="-15.6716" y1="15.9828" x2="6.32722" y2="46.9556" gradientUnits="userSpaceOnUse">
<stop stop-color="#00FFAA"/>
<stop offset="0.530854" stop-color="#4579F5"/>
<stop offset="0.999815" stop-color="#9C42F5"/>
</linearGradient>
</defs>
</svg>
