<svg width="24" height="24" viewBox="0 0 24 24" fill="none" xmlns="http://www.w3.org/2000/svg">
<g clip-path="url(#clip0_946_22617)">
<path fill-rule="evenodd" clip-rule="evenodd" d="M1.41675 2.9448C1.32044 2.55955 0.930058 2.32532 0.544807 2.42163C0.159556 2.51794 -0.0746743 2.90833 0.0216384 3.29358L1.02995 7.32682L1.96833 11.2422C2.36734 12.907 2.68141 14.2175 3.0541 15.2355C3.43639 16.2798 3.90521 17.0905 4.65738 17.7122C4.72229 17.7658 4.78842 17.818 4.85573 17.8686C5.63559 18.4551 6.53323 18.7221 7.63784 18.8505C8.71469 18.9756 10.0622 18.9756 11.7742 18.9756H12.3431C13.8244 18.9756 14.9904 18.9756 15.9298 18.8806C16.8919 18.7833 17.6836 18.5814 18.396 18.1354C18.7339 17.9238 19.0479 17.6762 19.3324 17.3969C19.9323 16.808 20.3131 16.0852 20.632 15.1722C20.9433 14.2809 21.2151 13.147 21.5603 11.7065L21.5803 11.6229C21.7885 10.7544 21.9601 10.0385 22.0264 9.45864C22.0952 8.85678 22.0671 8.2837 21.7667 7.76046C21.6382 7.53666 21.4775 7.33294 21.2898 7.15582C20.851 6.7417 20.3002 6.58084 19.6989 6.50746C19.1195 6.43676 18.3834 6.43678 17.4903 6.4368L2.28976 6.4368L1.41675 2.9448ZM8.62849 14.6236C8.62849 14.2265 8.95041 13.9046 9.34752 13.9046H15.0997C15.4968 13.9046 15.8188 14.2265 15.8188 14.6236C15.8188 15.0207 15.4968 15.3426 15.0997 15.3426H9.34752C8.95041 15.3426 8.62849 15.0207 8.62849 14.6236Z" fill="white"/>
<path d="M8.79247 22.2932C9.34981 22.2932 9.80163 21.8414 9.80163 21.2841C9.80163 20.7267 9.34981 20.2749 8.79247 20.2749C8.23513 20.2749 7.78331 20.7267 7.78331 21.2841C7.78331 21.8414 8.23513 22.2932 8.79247 22.2932Z" fill="white"/>
<path d="M14.8474 22.2932C15.4048 22.2932 15.8566 21.8414 15.8566 21.2841C15.8566 20.7267 15.4048 20.2749 14.8474 20.2749C14.2901 20.2749 13.8383 20.7267 13.8383 21.2841C13.8383 21.8414 14.2901 22.2932 14.8474 22.2932Z" fill="white"/>
<path fill-rule="evenodd" clip-rule="evenodd" d="M2.61988 2.9448C2.52357 2.55955 2.13318 2.32532 1.74793 2.42163C1.36268 2.51794 1.12845 2.90833 1.22476 3.29358L2.23307 7.32682L3.17146 11.2422C3.57047 12.907 3.88453 14.2175 4.25722 15.2355C4.63952 16.2798 5.10833 17.0905 5.8605 17.7122C5.92541 17.7658 5.99155 17.818 6.05885 17.8686C6.83871 18.4551 7.73636 18.7221 8.84097 18.8505C9.91782 18.9756 11.2654 18.9756 12.9773 18.9756H13.5462C15.0275 18.9756 16.1935 18.9756 17.1329 18.8806C18.095 18.7833 18.8867 18.5814 19.5991 18.1354C19.9371 17.9238 20.251 17.6762 20.5356 17.3969C21.1354 16.808 21.5163 16.0852 21.8351 15.1722C22.1464 14.2809 22.4182 13.147 22.7634 11.7065L22.7835 11.6229C22.9916 10.7544 23.1632 10.0385 23.2295 9.45864C23.2983 8.85678 23.2702 8.2837 22.9698 7.76046C22.8413 7.53666 22.6806 7.33294 22.4929 7.15582C22.0541 6.7417 21.5034 6.58084 20.902 6.50746C20.3227 6.43676 19.5866 6.43678 18.6934 6.4368L3.49288 6.4368L2.61988 2.9448ZM9.83162 14.6236C9.83162 14.2265 10.1535 13.9046 10.5506 13.9046H16.3029C16.7 13.9046 17.0219 14.2265 17.0219 14.6236C17.0219 15.0207 16.7 15.3426 16.3029 15.3426H10.5506C10.1535 15.3426 9.83162 15.0207 9.83162 14.6236Z" fill="url(#paint0_linear_946_22617)"/>
<path d="M9.99559 22.2932C10.5529 22.2932 11.0048 21.8414 11.0048 21.2841C11.0048 20.7267 10.5529 20.2749 9.99559 20.2749C9.43825 20.2749 8.98643 20.7267 8.98643 21.2841C8.98643 21.8414 9.43825 22.2932 9.99559 22.2932Z" fill="url(#paint1_linear_946_22617)"/>
<path d="M16.0506 22.2932C16.6079 22.2932 17.0597 21.8414 17.0597 21.2841C17.0597 20.7267 16.6079 20.2749 16.0506 20.2749C15.4932 20.2749 15.0414 20.7267 15.0414 21.2841C15.0414 21.8414 15.4932 22.2932 16.0506 22.2932Z" fill="url(#paint2_linear_946_22617)"/>
</g>
<defs>
<linearGradient id="paint0_linear_946_22617" x1="-9.80935" y1="12.3319" x2="9.94904" y2="34.2399" gradientUnits="userSpaceOnUse">
<stop stop-color="#00FFAA"/>
<stop offset="0.530854" stop-color="#4579F5"/>
<stop offset="0.999815" stop-color="#9C42F5"/>
</linearGradient>
<linearGradient id="paint1_linear_946_22617" x1="-9.80935" y1="12.3319" x2="9.94904" y2="34.2399" gradientUnits="userSpaceOnUse">
<stop stop-color="#00FFAA"/>
<stop offset="0.530854" stop-color="#4579F5"/>
<stop offset="0.999815" stop-color="#9C42F5"/>
</linearGradient>
<linearGradient id="paint2_linear_946_22617" x1="-9.80935" y1="12.3319" x2="9.94904" y2="34.2399" gradientUnits="userSpaceOnUse">
<stop stop-color="#00FFAA"/>
<stop offset="0.530854" stop-color="#4579F5"/>
<stop offset="0.999815" stop-color="#9C42F5"/>
</linearGradient>
<clipPath id="clip0_946_22617">
<rect width="24" height="24" fill="white"/>
</clipPath>
</defs>
</svg>
