<svg width="24" height="24" viewBox="0 0 24 24" fill="none" xmlns="http://www.w3.org/2000/svg">
<path d="M4 5.75C4 3.12665 6.12665 1 8.75 1C11.3734 1 13.5 3.12665 13.5 5.75C13.5 8.37335 11.3734 10.5 8.75 10.5C6.12665 10.5 4 8.37335 4 5.75Z" fill="url(#paint0_linear_645_4892)"/>
<path d="M1 16.75C1 14.1266 3.12665 12 5.75 12H11.75C13.7872 12 15.5248 13.2825 16.1997 15.0841L15.8908 15.4291C15.1963 16.2048 14.8063 16.6335 14.5 16.8947C14.1937 16.6335 13.8037 16.2048 13.1092 15.4291L12.2401 14.4583C11.5033 13.6354 10.2389 13.5655 9.41594 14.3023C8.593 15.0391 8.52316 16.3035 9.25994 17.1264L10.2067 18.1839C10.8065 18.8542 11.3898 19.506 11.9441 19.9718C12.4637 20.4085 13.1221 20.8267 13.9559 20.9578C13.2967 21.3041 12.5463 21.5 11.75 21.5H5.75C3.12665 21.5 1 19.3734 1 16.75Z" fill="url(#paint1_linear_645_4892)"/>
<path d="M21.3088 13.5003C21.5851 13.1917 21.5589 12.7175 21.2503 12.4412C20.9417 12.1649 20.4675 12.1911 20.1912 12.4997L16.8221 16.2629C16.1394 17.0254 15.6796 17.5363 15.2865 17.8667C14.9121 18.1814 14.6921 18.25 14.5 18.25C14.3079 18.25 14.0879 18.1814 13.7135 17.8667C13.3204 17.5363 12.8606 17.0254 12.1779 16.2629L11.3088 15.2921C11.0325 14.9835 10.5583 14.9573 10.2497 15.2336C9.94113 15.5099 9.91493 15.984 10.1912 16.2926L11.0975 17.3049C11.7334 18.0152 12.2637 18.6076 12.7484 19.0149C13.261 19.4458 13.8139 19.75 14.5 19.75C15.1861 19.75 15.739 19.4458 16.2516 19.0149C16.7363 18.6076 17.2666 18.0152 17.9025 17.3049L21.3088 13.5003Z" fill="url(#paint2_linear_645_4892)"/>
<path d="M5.25 5.75C5.25 3.12665 7.37665 1 10 1C12.6234 1 14.75 3.12665 14.75 5.75C14.75 8.37335 12.6234 10.5 10 10.5C7.37665 10.5 5.25 8.37335 5.25 5.75Z" fill="white"/>
<path d="M2.25 16.75C2.25 14.1266 4.37665 12 7 12H13C15.0372 12 16.7748 13.2825 17.4497 15.0841L17.1408 15.4291C16.4463 16.2048 16.0563 16.6335 15.75 16.8947C15.4437 16.6335 15.0537 16.2048 14.3592 15.4291L13.4901 14.4583C12.7533 13.6354 11.4889 13.5655 10.6659 14.3023C9.843 15.0391 9.77316 16.3035 10.5099 17.1264L11.4567 18.1839C12.0565 18.8542 12.6398 19.506 13.1941 19.9718C13.7137 20.4085 14.3721 20.8267 15.2059 20.9578C14.5467 21.3041 13.7963 21.5 13 21.5H7C4.37665 21.5 2.25 19.3734 2.25 16.75Z" fill="white"/>
<path d="M22.5588 13.5003C22.8351 13.1917 22.8089 12.7175 22.5003 12.4412C22.1917 12.1649 21.7175 12.1911 21.4412 12.4997L18.0721 16.2629C17.3894 17.0254 16.9296 17.5363 16.5365 17.8667C16.1621 18.1814 15.9421 18.25 15.75 18.25C15.5579 18.25 15.3379 18.1814 14.9635 17.8667C14.5704 17.5363 14.1106 17.0254 13.4279 16.2629L12.5588 15.2921C12.2825 14.9835 11.8083 14.9573 11.4997 15.2336C11.1911 15.5099 11.1649 15.984 11.4412 16.2926L12.3475 17.3049C12.9834 18.0152 13.5137 18.6076 13.9984 19.0149C14.511 19.4458 15.0639 19.75 15.75 19.75C16.4361 19.75 16.989 19.4458 17.5016 19.0149C17.9863 18.6076 18.5166 18.0152 19.1525 17.3049L22.5588 13.5003Z" fill="white"/>
<defs>
<linearGradient id="paint0_linear_645_4892" x1="-9.23486" y1="11.2349" x2="11.2349" y2="31.7046" gradientUnits="userSpaceOnUse">
<stop stop-color="#00FFAA"/>
<stop offset="0.530854" stop-color="#4579F5"/>
<stop offset="0.999815" stop-color="#9C42F5"/>
</linearGradient>
<linearGradient id="paint1_linear_645_4892" x1="-9.23486" y1="11.2349" x2="11.2349" y2="31.7046" gradientUnits="userSpaceOnUse">
<stop stop-color="#00FFAA"/>
<stop offset="0.530854" stop-color="#4579F5"/>
<stop offset="0.999815" stop-color="#9C42F5"/>
</linearGradient>
<linearGradient id="paint2_linear_645_4892" x1="-9.23486" y1="11.2349" x2="11.2349" y2="31.7046" gradientUnits="userSpaceOnUse">
<stop stop-color="#00FFAA"/>
<stop offset="0.530854" stop-color="#4579F5"/>
<stop offset="0.999815" stop-color="#9C42F5"/>
</linearGradient>
</defs>
</svg>
