<svg width="20" height="20" viewBox="0 0 20 20" fill="none" xmlns="http://www.w3.org/2000/svg">
<path fill-rule="evenodd" clip-rule="evenodd" d="M4.4054 1.97811C5.35718 1.87499 6.55685 1.87499 8.08729 1.875H8.16271C9.69315 1.87499 10.8928 1.87499 11.8446 1.97811C12.8159 2.08334 13.6029 2.30194 14.2748 2.79013C14.6816 3.08567 15.0393 3.44341 15.3349 3.8502C15.8231 4.52213 16.0417 5.30912 16.1469 6.2804C16.25 7.23216 16.25 8.43187 16.25 9.96227V10.005C16.25 10.7836 16.25 11.4735 16.2374 12.0838C16.2002 13.8788 16.0598 15.1521 15.3349 16.1498C15.0393 16.5566 14.6816 16.9143 14.2748 17.2099C13.6029 17.6981 12.8159 17.9167 11.8446 18.0219C10.8928 18.125 9.6932 18.125 8.16279 18.125H8.08727C6.55687 18.125 5.35716 18.125 4.4054 18.0219C3.43412 17.9167 2.64713 17.6981 1.9752 17.2099C1.58317 16.9251 1.2367 16.5825 0.947549 16.1939C0.936659 16.1793 0.925851 16.1646 0.915127 16.1498C0.426937 15.4779 0.208339 14.6909 0.103107 13.7196C-1.20948e-05 12.7678 -6.68275e-06 11.5682 1.09989e-07 10.0377V9.96229C-6.47073e-06 8.43185 -1.16229e-05 7.23217 0.103107 6.2804C0.208339 5.30912 0.426937 4.52213 0.915127 3.8502C1.21068 3.44341 1.56841 3.08568 1.9752 2.79013C2.64713 2.30194 3.43412 2.08334 4.4054 1.97811ZM14.9961 11.4597L14.9436 11.409C14.7136 11.1881 14.5437 11.0386 14.3838 10.9251C12.5932 9.65374 10.1232 9.99042 8.73813 11.6947C8.57086 11.9005 8.40341 12.1748 8.14016 12.6352L7.70833 12.5C6.71206 12.3007 6.21393 12.2011 5.75674 12.2108C4.53321 12.2368 3.38296 12.7994 2.61128 13.7492C2.35403 14.0659 2.14547 14.4616 1.78085 15.1886C1.82582 15.2682 1.87426 15.3433 1.9264 15.4151L1.95036 15.4477C2.16409 15.7349 2.42017 15.9881 2.70993 16.1986C3.13326 16.5062 3.67511 16.6855 4.54004 16.7792C5.41666 16.8741 6.54869 16.875 8.125 16.875C9.70131 16.875 10.8333 16.8741 11.71 16.7792C12.5749 16.6855 13.1167 16.5062 13.5401 16.1986C13.8407 15.9802 14.1052 15.7157 14.3236 15.4151C14.7917 14.7708 14.95 13.8772 14.9876 12.0579C14.9916 11.8671 14.9943 11.668 14.9961 11.4597ZM7.29167 9.16667C6.37119 9.16667 5.625 8.42047 5.625 7.5C5.625 6.57953 6.37119 5.83333 7.29167 5.83333C8.21214 5.83333 8.95833 6.57953 8.95833 7.5C8.95833 8.42047 8.21214 9.16667 7.29167 9.16667Z" fill="url(#paint0_linear_645_5127)"/>
<path fill-rule="evenodd" clip-rule="evenodd" d="M6.2804 1.97811C7.23218 1.87499 8.43185 1.87499 9.96229 1.875H10.0377C11.5682 1.87499 12.7678 1.87499 13.7196 1.97811C14.6909 2.08334 15.4779 2.30194 16.1498 2.79013C16.5566 3.08567 16.9143 3.44341 17.2099 3.8502C17.6981 4.52213 17.9167 5.30912 18.0219 6.2804C18.125 7.23216 18.125 8.43187 18.125 9.96227V10.005C18.125 10.7836 18.125 11.4735 18.1124 12.0838C18.0752 13.8788 17.9348 15.1521 17.2099 16.1498C16.9143 16.5566 16.5566 16.9143 16.1498 17.2099C15.4779 17.6981 14.6909 17.9167 13.7196 18.0219C12.7678 18.125 11.5682 18.125 10.0378 18.125H9.96227C8.43187 18.125 7.23216 18.125 6.2804 18.0219C5.30912 17.9167 4.52213 17.6981 3.8502 17.2099C3.45817 16.9251 3.1117 16.5825 2.82255 16.1939C2.81166 16.1793 2.80085 16.1646 2.79013 16.1498C2.30194 15.4779 2.08334 14.6909 1.97811 13.7196C1.87499 12.7678 1.87499 11.5682 1.875 10.0377V9.96229C1.87499 8.43185 1.87499 7.23217 1.97811 6.2804C2.08334 5.30912 2.30194 4.52213 2.79013 3.8502C3.08568 3.44341 3.44341 3.08568 3.8502 2.79013C4.52213 2.30194 5.30912 2.08334 6.2804 1.97811ZM16.8711 11.4597L16.8186 11.409C16.5886 11.1881 16.4187 11.0386 16.2588 10.9251C14.4682 9.65374 11.9982 9.99042 10.6131 11.6947C10.4459 11.9005 10.2784 12.1748 10.0152 12.6352L9.58333 12.5C8.58706 12.3007 8.08893 12.2011 7.63174 12.2108C6.40821 12.2368 5.25796 12.7994 4.48628 13.7492C4.22903 14.0659 4.02047 14.4616 3.65585 15.1886C3.70082 15.2682 3.74926 15.3433 3.8014 15.4151L3.82536 15.4477C4.03909 15.7349 4.29517 15.9881 4.58493 16.1986C5.00826 16.5062 5.55011 16.6855 6.41504 16.7792C7.29166 16.8741 8.42369 16.875 10 16.875C11.5763 16.875 12.7083 16.8741 13.585 16.7792C14.4499 16.6855 14.9917 16.5062 15.4151 16.1986C15.7157 15.9802 15.9802 15.7157 16.1986 15.4151C16.6667 14.7708 16.825 13.8772 16.8626 12.0579C16.8666 11.8671 16.8693 11.668 16.8711 11.4597ZM9.16667 9.16667C8.24619 9.16667 7.5 8.42047 7.5 7.5C7.5 6.57953 8.24619 5.83333 9.16667 5.83333C10.0871 5.83333 10.8333 6.57953 10.8333 7.5C10.8333 8.42047 10.0871 9.16667 9.16667 9.16667Z" fill="white"/>
<defs>
<linearGradient id="paint0_linear_645_5127" x1="-8.113" y1="9.988" x2="8.113" y2="26.214" gradientUnits="userSpaceOnUse">
<stop stop-color="#00FFAA"/>
<stop offset="0.530854" stop-color="#4579F5"/>
<stop offset="0.999815" stop-color="#9C42F5"/>
</linearGradient>
</defs>
</svg>
