<svg width="32" height="32" viewBox="0 0 32 32" fill="none" xmlns="http://www.w3.org/2000/svg">
<path d="M13.3333 2.66666C9.83553 2.66666 7 5.50219 7 8.99999C7 12.4978 9.83553 15.3333 13.3333 15.3333C16.8311 15.3333 19.6667 12.4978 19.6667 8.99999C19.6667 5.50219 16.8311 2.66666 13.3333 2.66666Z" fill="url(#paint0_linear_334_1119)"/>
<path d="M9.33333 17.3333C5.83553 17.3333 3 20.1689 3 23.6667C3 27.1645 5.83553 30 9.33333 30H17.3333C20.8311 30 23.6667 27.1645 23.6667 23.6667C23.6667 20.1689 20.8311 17.3333 17.3333 17.3333H9.33333Z" fill="url(#paint1_linear_334_1119)"/>
<path d="M16 2.66666C12.5022 2.66666 9.66667 5.50219 9.66667 8.99999C9.66667 12.4978 12.5022 15.3333 16 15.3333C19.4978 15.3333 22.3333 12.4978 22.3333 8.99999C22.3333 5.50219 19.4978 2.66666 16 2.66666Z" fill="white"/>
<path d="M12 17.3333C8.5022 17.3333 5.66667 20.1689 5.66667 23.6667C5.66667 27.1645 8.5022 30 12 30H20C23.4978 30 26.3333 27.1645 26.3333 23.6667C26.3333 20.1689 23.4978 17.3333 20 17.3333H12Z" fill="white"/>
<defs>
<linearGradient id="paint0_linear_334_1119" x1="-7.31807" y1="16.3131" x2="18.9418" y2="36.1682" gradientUnits="userSpaceOnUse">
<stop stop-color="#00FFAA"/>
<stop offset="0.530854" stop-color="#4579F5"/>
<stop offset="0.999815" stop-color="#9C42F5"/>
</linearGradient>
<linearGradient id="paint1_linear_334_1119" x1="-7.31807" y1="16.3131" x2="18.9418" y2="36.1682" gradientUnits="userSpaceOnUse">
<stop stop-color="#00FFAA"/>
<stop offset="0.530854" stop-color="#4579F5"/>
<stop offset="0.999815" stop-color="#9C42F5"/>
</linearGradient>
</defs>
</svg>
