<svg width="36" height="36" viewBox="0 0 36 36" fill="none" xmlns="http://www.w3.org/2000/svg">
<path d="M32.008 11.0465C32.9247 6.26657 28.7282 2.07014 23.9484 2.98685L10.2248 5.61881C7.24153 6.19095 4.85571 8.44913 4.09772 11.3834C2.58436 17.2418 8.01741 22.5959 13.8511 20.8804C14.0121 20.833 14.1618 20.9827 14.1145 21.1438C12.3989 26.9774 17.7531 32.4105 23.6115 30.8972C26.5458 30.1392 28.8039 27.7533 29.3761 24.7701L32.008 11.0465Z" fill="url(#paint0_linear_855_19410)"/>
<path d="M5.7215 24.5004C6.16084 24.0611 6.16084 23.3488 5.7215 22.9094C5.28216 22.4701 4.56985 22.4701 4.13051 22.9094L2.00919 25.0307C1.56985 25.4701 1.56985 26.1824 2.00919 26.6217C2.44853 27.0611 3.16084 27.0611 3.60018 26.6217L5.7215 24.5004Z" fill="url(#paint1_linear_855_19410)"/>
<path d="M11.0248 23.9701C11.4641 24.4094 11.4641 25.1217 11.0248 25.5611L8.90348 27.6824C8.46414 28.1217 7.75183 28.1217 7.31249 27.6824C6.87315 27.243 6.87315 26.5307 7.31249 26.0914L9.43381 23.9701C9.87315 23.5307 10.5855 23.5307 11.0248 23.9701Z" fill="url(#paint2_linear_855_19410)"/>
<path d="M12.0855 30.8644C12.5248 30.425 12.5248 29.7127 12.0855 29.2734C11.6461 28.834 10.9338 28.834 10.4945 29.2734L8.37315 31.3947C7.93381 31.834 7.93381 32.5463 8.37315 32.9857C8.81249 33.425 9.5248 33.425 9.96414 32.9857L12.0855 30.8644Z" fill="url(#paint3_linear_855_19410)"/>
<path d="M33.7033 11.0465C34.62 6.26657 30.4236 2.07014 25.6437 2.98685L11.9201 5.61881C8.93684 6.19095 6.55102 8.44913 5.79303 11.3834C4.27967 17.2418 9.71273 22.5959 15.5464 20.8804C15.7075 20.833 15.8571 20.9827 15.8098 21.1438C14.0942 26.9774 19.4484 32.4105 25.3068 30.8972C28.2411 30.1392 30.4992 27.7533 31.0714 24.7701L33.7033 11.0465Z" fill="white"/>
<path d="M7.41682 24.5004C7.85616 24.0611 7.85616 23.3488 7.41682 22.9094C6.97748 22.4701 6.26517 22.4701 5.82583 22.9094L3.70451 25.0307C3.26517 25.4701 3.26516 26.1824 3.7045 26.6217C4.14384 27.0611 4.85616 27.0611 5.29549 26.6217L7.41682 24.5004Z" fill="white"/>
<path d="M12.7201 23.9701C13.1595 24.4094 13.1595 25.1217 12.7201 25.5611L10.5988 27.6824C10.1595 28.1217 9.44714 28.1217 9.00781 27.6824C8.56847 27.243 8.56847 26.5307 9.00781 26.0914L11.1291 23.9701C11.5685 23.5307 12.2808 23.5307 12.7201 23.9701Z" fill="white"/>
<path d="M13.7808 30.8644C14.2201 30.425 14.2201 29.7127 13.7808 29.2734C13.3414 28.834 12.6291 28.834 12.1898 29.2734L10.0685 31.3947C9.62913 31.834 9.62913 32.5463 10.0685 32.9857C10.5078 33.425 11.2201 33.425 11.6595 32.9857L13.7808 30.8644Z" fill="white"/>
<defs>
<linearGradient id="paint0_linear_855_19410" x1="-13.5253" y1="18.0652" x2="16.8848" y2="48.4752" gradientUnits="userSpaceOnUse">
<stop stop-color="#00FFAA"/>
<stop offset="0.530854" stop-color="#4579F5"/>
<stop offset="0.999815" stop-color="#9C42F5"/>
</linearGradient>
<linearGradient id="paint1_linear_855_19410" x1="-13.5253" y1="18.0652" x2="16.8848" y2="48.4752" gradientUnits="userSpaceOnUse">
<stop stop-color="#00FFAA"/>
<stop offset="0.530854" stop-color="#4579F5"/>
<stop offset="0.999815" stop-color="#9C42F5"/>
</linearGradient>
<linearGradient id="paint2_linear_855_19410" x1="-13.5253" y1="18.0652" x2="16.8848" y2="48.4752" gradientUnits="userSpaceOnUse">
<stop stop-color="#00FFAA"/>
<stop offset="0.530854" stop-color="#4579F5"/>
<stop offset="0.999815" stop-color="#9C42F5"/>
</linearGradient>
<linearGradient id="paint3_linear_855_19410" x1="-13.5253" y1="18.0652" x2="16.8848" y2="48.4752" gradientUnits="userSpaceOnUse">
<stop stop-color="#00FFAA"/>
<stop offset="0.530854" stop-color="#4579F5"/>
<stop offset="0.999815" stop-color="#9C42F5"/>
</linearGradient>
</defs>
</svg>
