<svg width="20" height="20" viewBox="0 0 20 20" fill="none" xmlns="http://www.w3.org/2000/svg">
<g clip-path="url(#clip0_591_7197)">
<path fill-rule="evenodd" clip-rule="evenodd" d="M3.74893 3.36789C3.74893 2.08306 4.79049 1.0415 6.07531 1.0415H10.3803C11.5309 1.0415 12.4637 1.97424 12.4637 3.12484C12.4637 3.58507 12.8368 3.95817 13.297 3.95817H13.7881C15.1088 3.95817 16.2704 4.98316 16.2166 6.38784C16.1476 8.18873 15.7978 11.0774 14.395 13.6338C14.0148 14.3268 13.507 15.0075 12.958 15.6418L12.9167 15.6895C12.1269 16.602 11.4685 17.3628 10.7606 17.8814C9.99919 18.4393 9.18653 18.7171 8.10629 18.7171C7.02604 18.7171 6.21339 18.4393 5.45199 17.8814C4.74409 17.3628 4.08563 16.602 3.2959 15.6895L3.25458 15.6418C2.70561 15.0075 2.19778 14.3268 1.81754 13.6338C0.459908 11.1597 0.0876975 8.54775 0.00309456 6.87191C-0.0681616 5.46044 1.10177 4.44428 2.41515 4.44428H2.67254C3.26701 4.44428 3.74893 3.96237 3.74893 3.36789ZM11.0929 8.72532C11.3095 8.45653 11.2672 8.06308 10.9984 7.8465C10.7296 7.62993 10.3361 7.67225 10.1196 7.94103L8.43498 10.0317C8.08908 10.461 7.87083 10.7294 7.68919 10.8991C7.60383 10.9788 7.54931 11.0142 7.51797 11.0299C7.49465 11.0416 7.48631 11.0415 7.48184 11.0415H7.48063C7.47615 11.0415 7.46782 11.0416 7.44449 11.0299C7.41316 11.0142 7.35863 10.9788 7.27328 10.8991C7.09164 10.7294 6.87338 10.461 6.52749 10.0317L6.0929 9.49234C5.87633 9.22356 5.48287 9.18124 5.21409 9.39781C4.94531 9.61439 4.90299 10.0078 5.11956 10.2766L5.58129 10.8497C5.89171 11.235 6.16559 11.5749 6.4201 11.8126C6.69337 12.0678 7.03312 12.2915 7.48123 12.2915C7.92935 12.2915 8.2691 12.0678 8.54236 11.8126C8.79687 11.5749 9.07073 11.235 9.38115 10.8497L11.0929 8.72532Z" fill="url(#paint0_linear_591_7197)"/>
<path fill-rule="evenodd" clip-rule="evenodd" d="M5.64346 3.36789C5.64346 2.08306 6.68502 1.0415 7.96985 1.0415H12.2749C13.4254 1.0415 14.3582 1.97424 14.3582 3.12484C14.3582 3.58507 14.7313 3.95817 15.1915 3.95817H15.6826C17.0033 3.95817 18.1649 4.98316 18.1111 6.38784C18.0421 8.18873 17.6923 11.0774 16.2896 13.6338C15.9093 14.3268 15.4015 15.0075 14.8525 15.6418L14.8112 15.6895C14.0215 16.602 13.363 17.3628 12.6551 17.8814C11.8937 18.4393 11.0811 18.7171 10.0008 18.7171C8.92058 18.7171 8.10792 18.4393 7.34652 17.8814C6.63863 17.3628 5.98016 16.602 5.19044 15.6895L5.14911 15.6418C4.60014 15.0075 4.09231 14.3268 3.71207 13.6338C2.35444 11.1597 1.98223 8.54775 1.89763 6.87191C1.82637 5.46044 2.9963 4.44428 4.30968 4.44428H4.56707C5.16154 4.44428 5.64346 3.96237 5.64346 3.36789ZM12.9874 8.72532C13.204 8.45653 13.1617 8.06308 12.8929 7.8465C12.6241 7.62993 12.2307 7.67225 12.0141 7.94103L10.3295 10.0317C9.98361 10.461 9.76536 10.7294 9.58372 10.8991C9.49836 10.9788 9.44384 11.0142 9.41251 11.0299C9.38918 11.0416 9.38084 11.0415 9.37637 11.0415H9.37516C9.37068 11.0415 9.36235 11.0416 9.33902 11.0299C9.30769 11.0142 9.25316 10.9788 9.16781 10.8991C8.98617 10.7294 8.76792 10.461 8.42202 10.0317L7.98743 9.49234C7.77086 9.22356 7.3774 9.18124 7.10862 9.39781C6.83984 9.61439 6.79752 10.0078 7.01409 10.2766L7.47582 10.8497C7.78624 11.235 8.06012 11.5749 8.31463 11.8126C8.5879 12.0678 8.92765 12.2915 9.37576 12.2915C9.82388 12.2915 10.1636 12.0678 10.4369 11.8126C10.6914 11.5749 10.9653 11.235 11.2757 10.8497L12.9874 8.72532Z" fill="white"/>
</g>
<defs>
<linearGradient id="paint0_linear_591_7197" x1="-8.09722" y1="9.86625" x2="9.48716" y2="26.0009" gradientUnits="userSpaceOnUse">
<stop stop-color="#00FFAA"/>
<stop offset="0.530854" stop-color="#4579F5"/>
<stop offset="0.999815" stop-color="#9C42F5"/>
</linearGradient>
<clipPath id="clip0_591_7197">
<rect width="20" height="20" fill="white"/>
</clipPath>
</defs>
</svg>
