<svg width="24" height="24" viewBox="0 0 24 24" fill="none" xmlns="http://www.w3.org/2000/svg">
<path d="M16.9945 4.64283C16.3813 4.44952 15.6922 4.35567 14.896 4.30655C13.986 4.25039 12.8801 4.2504 11.5233 4.2504H8.46074C6.85735 4.25039 5.60039 4.25039 4.5962 4.34586C3.57265 4.44318 2.73455 4.64497 1.99573 5.09772C1.22203 5.57184 0.571533 6.22234 0.0974129 6.99603C0.0806159 7.02344 0.0641644 7.05099 0.0480508 7.07868C0.125345 5.63553 0.327231 4.67972 0.854544 3.92306C1.13049 3.5271 1.46451 3.17888 1.84432 2.89119C3.02036 2.0004 4.69796 2.0004 8.05317 2.0004H13.4219C15.1091 2.0004 15.9527 2.0004 16.4769 2.54685C16.8794 2.96653 16.9728 3.58267 16.9945 4.64283Z" fill="url(#paint0_linear_566_1924)"/>
<path d="M0.736799 7.3879C0 8.59025 0 10.227 0 13.5004C0 16.7738 0 18.4105 0.736799 19.6129C1.14908 20.2857 1.71473 20.8513 2.38751 21.2636C3.58985 22.0004 5.22657 22.0004 8.5 22.0004H11.5C14.7734 22.0004 16.4101 22.0004 17.6125 21.2636C18.2853 20.8513 18.8509 20.2857 19.2632 19.6129C19.7471 18.8232 19.9132 17.8463 19.9702 16.3413H13.6365C11.716 16.3413 10.1592 14.7845 10.1592 12.8641C10.1592 10.9436 11.716 9.38678 13.6365 9.38678H19.8777C19.7775 8.55913 19.5951 7.92945 19.2632 7.3879C18.8509 6.71513 18.2853 6.14948 17.6125 5.7372C17.421 5.61983 17.2184 5.52116 17 5.43821C15.8472 5.0004 14.252 5.0004 11.5 5.0004H8.5C5.22657 5.0004 3.58985 5.0004 2.38751 5.7372C1.71473 6.14948 1.14908 6.71513 0.736799 7.3879Z" fill="url(#paint1_linear_566_1924)"/>
<path d="M18.9945 4.64283C18.3813 4.44952 17.6922 4.35567 16.896 4.30655C15.986 4.25039 14.8801 4.2504 13.5233 4.2504H10.4607C8.85735 4.25039 7.60039 4.25039 6.5962 4.34586C5.57265 4.44318 4.73455 4.64497 3.99573 5.09772C3.22203 5.57184 2.57153 6.22234 2.09741 6.99603C2.08062 7.02344 2.06416 7.05099 2.04805 7.07868C2.12534 5.63553 2.32723 4.67972 2.85454 3.92306C3.13049 3.5271 3.46451 3.17888 3.84432 2.89119C5.02036 2.0004 6.69796 2.0004 10.0532 2.0004H15.4219C17.1091 2.0004 17.9527 2.0004 18.4769 2.54685C18.8794 2.96653 18.9728 3.58267 18.9945 4.64283Z" fill="white"/>
<path d="M2.7368 7.3879C2 8.59025 2 10.227 2 13.5004C2 16.7738 2 18.4105 2.7368 19.6129C3.14908 20.2857 3.71473 20.8513 4.38751 21.2636C5.58985 22.0004 7.22657 22.0004 10.5 22.0004H13.5C16.7734 22.0004 18.4101 22.0004 19.6125 21.2636C20.2853 20.8513 20.8509 20.2857 21.2632 19.6129C21.7471 18.8233 21.9132 17.8463 21.9702 16.3413H15.6365C13.716 16.3413 12.1592 14.7845 12.1592 12.8641C12.1592 10.9436 13.716 9.38678 15.6365 9.38678H21.8777C21.7775 8.55913 21.5951 7.92945 21.2632 7.3879C20.8509 6.71513 20.2853 6.14948 19.6125 5.7372C19.421 5.61983 19.2184 5.52116 19 5.43821C17.8472 5.0004 16.252 5.0004 13.5 5.0004H10.5C7.22657 5.0004 5.58985 5.0004 4.38751 5.7372C3.71473 6.14948 3.14908 6.71513 2.7368 7.3879Z" fill="white"/>
<path fill-rule="evenodd" clip-rule="evenodd" d="M21.9779 10.8868H15.6365C14.5444 10.8868 13.6592 11.772 13.6592 12.8641C13.6592 13.9561 14.5444 14.8413 15.6365 14.8413H21.9977C22 14.4272 22 13.9814 22 13.5004C22 12.4832 22 11.624 21.9779 10.8868ZM15.6365 12.1141C15.2222 12.1141 14.8865 12.4498 14.8865 12.8641C14.8865 13.2783 15.2222 13.6141 15.6365 13.6141H18.3637C18.7779 13.6141 19.1137 13.2783 19.1137 12.8641C19.1137 12.4498 18.7779 12.1141 18.3637 12.1141H15.6365Z" fill="white"/>
<defs>
<linearGradient id="paint0_linear_566_1924" x1="-9.98523" y1="11.9856" x2="9.98523" y2="31.9561" gradientUnits="userSpaceOnUse">
<stop stop-color="#00FFAA"/>
<stop offset="0.530854" stop-color="#4579F5"/>
<stop offset="0.999815" stop-color="#9C42F5"/>
</linearGradient>
<linearGradient id="paint1_linear_566_1924" x1="-9.98523" y1="11.9856" x2="9.98523" y2="31.9561" gradientUnits="userSpaceOnUse">
<stop stop-color="#00FFAA"/>
<stop offset="0.530854" stop-color="#4579F5"/>
<stop offset="0.999815" stop-color="#9C42F5"/>
</linearGradient>
</defs>
</svg>
