<svg width="36" height="36" viewBox="0 0 36 36" fill="none" xmlns="http://www.w3.org/2000/svg">
<path d="M6.5 8.625C6.5 4.68997 9.68997 1.5 13.625 1.5C17.56 1.5 20.75 4.68997 20.75 8.625C20.75 12.56 17.56 15.75 13.625 15.75C9.68997 15.75 6.5 12.56 6.5 8.625Z" fill="url(#paint0_linear_855_19401)"/>
<path d="M2 25.125C2 21.19 5.18997 18 9.125 18H18.125C21.1808 18 23.7873 19.9237 24.7995 22.6261L24.3361 23.1437C23.2944 24.3072 22.7094 24.9503 22.25 25.3421C21.7906 24.9503 21.2056 24.3072 20.1639 23.1437L18.8601 21.6875C17.7549 20.453 15.8583 20.3483 14.6239 21.4534C13.3895 22.5586 13.2847 24.4552 14.3899 25.6896L15.81 27.2758C16.7098 28.2812 17.5847 29.2589 18.4161 29.9577C19.1955 30.6128 20.1831 31.24 21.4338 31.4367C20.4451 31.9561 19.3194 32.25 18.125 32.25H9.125C5.18997 32.25 2 29.06 2 25.125Z" fill="url(#paint1_linear_855_19401)"/>
<path d="M32.4632 20.2504C32.8776 19.7875 32.8383 19.0763 32.3754 18.6618C31.9125 18.2474 31.2013 18.2867 30.7868 18.7496L25.7331 24.3944C24.709 25.5382 24.0194 26.3044 23.4298 26.8C22.8681 27.2721 22.5382 27.375 22.25 27.375C21.9618 27.375 21.6319 27.2721 21.0702 26.8C20.4806 26.3044 19.791 25.5382 18.7669 24.3944L17.4632 22.9381C17.0487 22.4752 16.3375 22.4359 15.8746 22.8504C15.4117 23.2648 15.3724 23.976 15.7868 24.4389L17.1463 25.9574C18.1001 27.0228 18.8956 27.9114 19.6225 28.5224C20.3915 29.1687 21.2209 29.625 22.25 29.625C23.2791 29.625 24.1085 29.1687 24.8775 28.5224C25.6044 27.9114 26.3999 27.0228 27.3537 25.9574L32.4632 20.2504Z" fill="url(#paint2_linear_855_19401)"/>
<path d="M7.875 8.625C7.875 4.68997 11.065 1.5 15 1.5C18.935 1.5 22.125 4.68997 22.125 8.625C22.125 12.56 18.935 15.75 15 15.75C11.065 15.75 7.875 12.56 7.875 8.625Z" fill="white"/>
<path d="M3.375 25.125C3.375 21.19 6.56497 18 10.5 18H19.5C22.5558 18 25.1623 19.9237 26.1745 22.6261L25.7111 23.1437C24.6694 24.3072 24.0844 24.9503 23.625 25.3421C23.1656 24.9503 22.5806 24.3072 21.5389 23.1437L20.2351 21.6875C19.1299 20.453 17.2333 20.3483 15.9989 21.4534C14.7645 22.5586 14.6597 24.4552 15.7649 25.6896L17.185 27.2758C18.0848 28.2812 18.9597 29.2589 19.7911 29.9577C20.5705 30.6128 21.5581 31.24 22.8088 31.4367C21.8201 31.9561 20.6944 32.25 19.5 32.25H10.5C6.56497 32.25 3.375 29.06 3.375 25.125Z" fill="white"/>
<path d="M33.8382 20.2504C34.2526 19.7875 34.2133 19.0763 33.7504 18.6618C33.2875 18.2474 32.5763 18.2867 32.1618 18.7496L27.1081 24.3944C26.084 25.5382 25.3944 26.3044 24.8048 26.8C24.2431 27.2721 23.9132 27.375 23.625 27.375C23.3368 27.375 23.0069 27.2721 22.4452 26.8C21.8556 26.3044 21.166 25.5382 20.1419 24.3944L18.8382 22.9381C18.4237 22.4752 17.7125 22.4359 17.2496 22.8504C16.7867 23.2648 16.7474 23.976 17.1618 24.4389L18.5213 25.9574C19.4751 27.0228 20.2706 27.9114 20.9975 28.5224C21.7665 29.1687 22.5959 29.625 23.625 29.625C24.6541 29.625 25.4835 29.1687 26.2525 28.5224C26.9794 27.9114 27.7749 27.0228 28.7287 25.9574L33.8382 20.2504Z" fill="white"/>
<defs>
<linearGradient id="paint0_linear_855_19401" x1="-13.3523" y1="16.8523" x2="17.3523" y2="47.5569" gradientUnits="userSpaceOnUse">
<stop stop-color="#00FFAA"/>
<stop offset="0.530854" stop-color="#4579F5"/>
<stop offset="0.999815" stop-color="#9C42F5"/>
</linearGradient>
<linearGradient id="paint1_linear_855_19401" x1="-13.3523" y1="16.8523" x2="17.3523" y2="47.5569" gradientUnits="userSpaceOnUse">
<stop stop-color="#00FFAA"/>
<stop offset="0.530854" stop-color="#4579F5"/>
<stop offset="0.999815" stop-color="#9C42F5"/>
</linearGradient>
<linearGradient id="paint2_linear_855_19401" x1="-13.3523" y1="16.8523" x2="17.3523" y2="47.5569" gradientUnits="userSpaceOnUse">
<stop stop-color="#00FFAA"/>
<stop offset="0.530854" stop-color="#4579F5"/>
<stop offset="0.999815" stop-color="#9C42F5"/>
</linearGradient>
</defs>
</svg>
