<svg width="52" height="33" viewBox="0 0 52 33" fill="none" xmlns="http://www.w3.org/2000/svg">
<g clip-path="url(#clip0_588_625)">
<path d="M32.8324 30.9032L35.7853 24.1438H23.0649L17.6133 33.001L32.8324 30.9032Z" fill="url(#paint0_linear_588_625)"/>
<path d="M32.8326 2.89571L35.7855 9.00098H23.0651L17.6135 1.00098L32.8326 2.89571Z" fill="url(#paint1_linear_588_625)"/>
<path d="M52.0007 16.7158C52.0007 16.7158 50.202 12.399 41.6581 9.46353C36.7429 7.77481 32.1536 7.0087 27.332 6.57861C24.2334 6.30222 20.995 6.45613 17.6003 6.67917V8.6865H15.7897V11.0393H13.9792V16.7158H52.0007Z" fill="#DCDFD9"/>
<path d="M52.0007 16.7158C52.0007 16.7158 50.202 21.1526 41.6581 24.1696C36.7429 25.9052 32.1536 26.6926 27.332 27.1346C24.2334 27.4187 20.995 27.2605 17.6003 27.0313V24.9682H15.7897V22.55H13.9792V16.7158H52.0007Z" fill="#F9F1F9"/>
<path d="M11.1833 14.4377C11.1833 15.9555 11.1833 17.0063 11.1833 19.5749C11.1833 22.4018 3.21394 20.2754 3.21394 19.5749C3.21394 18.8744 0.000488281 17.0063 0.000488281 17.0063C0.000488281 17.0063 3.21394 15.4885 3.21394 14.4377C3.21394 13.3869 11.1833 11.8151 11.1833 14.4377Z" fill="#E36018"/>
<path d="M11.1833 14.8843C11.1833 16.1381 11.1833 17.0062 11.1833 19.1281C11.1833 21.4634 5.20627 19.7068 5.20627 19.1281C5.20627 18.5494 2.79619 17.0062 2.79619 17.0062C2.79619 17.0062 5.20627 15.7523 5.20627 14.8843C5.20627 14.0162 11.1833 12.7178 11.1833 14.8843Z" fill="#FFAE44"/>
<path d="M11.1832 15.5528C11.1832 16.4107 11.1832 17.0046 11.1832 18.4564C11.1832 20.0543 7.19853 18.8524 7.19853 18.4564C7.19853 18.0605 5.5918 17.0046 5.5918 17.0046C5.5918 17.0046 7.19853 16.1467 7.19853 15.5528C7.19853 14.9589 11.1832 14.0704 11.1832 15.5528Z" fill="#FCE25E"/>
<path d="M13.9787 12.1436V21.5721L10.6239 21.0007V13.0007L13.9787 12.1436Z" fill="#5B6575"/>
<path d="M42.4954 21.3459C40.0249 21.3459 38.0222 19.2992 38.0222 16.7745C38.0222 14.2497 40.0249 12.203 42.4954 12.203C44.9658 12.203 46.9685 14.2497 46.9685 16.7745C46.9685 19.2992 44.9658 21.3459 42.4954 21.3459Z" fill="#00D5CC"/>
<path d="M32.5113 14.6602L35.506 16.6602L32.5113 18.6602L13.42 16.6602L32.5113 14.6602Z" fill="url(#paint2_linear_588_625)"/>
</g>
<defs>
<linearGradient id="paint0_linear_588_625" x1="-25.9612" y1="16.9773" x2="2.56308" y2="63.3295" gradientUnits="userSpaceOnUse">
<stop stop-color="#00FFAA"/>
<stop offset="0.530854" stop-color="#4579F5"/>
<stop offset="0.999815" stop-color="#9C42F5"/>
</linearGradient>
<linearGradient id="paint1_linear_588_625" x1="-25.9612" y1="16.9773" x2="2.56308" y2="63.3295" gradientUnits="userSpaceOnUse">
<stop stop-color="#00FFAA"/>
<stop offset="0.530854" stop-color="#4579F5"/>
<stop offset="0.999815" stop-color="#9C42F5"/>
</linearGradient>
<linearGradient id="paint2_linear_588_625" x1="-25.9612" y1="16.9773" x2="2.56308" y2="63.3295" gradientUnits="userSpaceOnUse">
<stop stop-color="#00FFAA"/>
<stop offset="0.530854" stop-color="#4579F5"/>
<stop offset="0.999815" stop-color="#9C42F5"/>
</linearGradient>
<clipPath id="clip0_588_625">
<rect width="52.0002" height="33" fill="white" transform="translate(0.000488281 0.000976562)"/>
</clipPath>
</defs>
</svg>
