<svg width="24" height="24" viewBox="0 0 24 24" fill="none" xmlns="http://www.w3.org/2000/svg">
<path fill-rule="evenodd" clip-rule="evenodd" d="M6.77117 4.04167C6.77117 2.49987 8.02104 1.25 9.56284 1.25H14.7288C16.1096 1.25 17.2288 2.36929 17.2288 3.75C17.2288 4.30228 17.6766 4.75 18.2288 4.75H18.8182C20.403 4.75 21.7969 5.97999 21.7324 7.66561C21.6496 9.82667 21.2298 13.2931 19.5465 16.3608C19.0902 17.1923 18.4808 18.0092 17.8221 18.7703L17.7725 18.8276C16.8248 19.9226 16.0346 20.8356 15.1852 21.4579C14.2715 22.1273 13.2963 22.4607 12 22.4607C10.7037 22.4607 9.72853 22.1273 8.81485 21.4579C7.96537 20.8356 7.17522 19.9226 6.22755 18.8276L6.17795 18.7703C5.51919 18.0092 4.9098 17.1923 4.4535 16.3608C2.82435 13.3918 2.3777 10.2575 2.27617 8.24648C2.19067 6.55273 3.59458 5.33333 5.17064 5.33333H5.4795C6.19287 5.33333 6.77117 4.75503 6.77117 4.04167ZM14.8943 10.6516C15.1872 10.3588 15.1872 9.88388 14.8943 9.59099C14.6014 9.2981 14.1265 9.2981 13.8336 9.59099L12.2427 11.182L10.6517 9.59099C10.3588 9.2981 9.8839 9.2981 9.59101 9.59099C9.29811 9.88388 9.29811 10.3588 9.59101 10.6517L11.182 12.2426L9.59101 13.8336C9.29811 14.1265 9.29811 14.6014 9.59101 14.8943C9.8839 15.1872 10.3588 15.1872 10.6517 14.8943L12.2427 13.3033L13.8336 14.8943C14.1265 15.1872 14.6014 15.1872 14.8943 14.8943C15.1872 14.6014 15.1872 14.1265 14.8943 13.8336L13.3033 12.2426L14.8943 10.6516Z" fill="#FF5372"/>
</svg>
