<svg width="34" height="32" viewBox="0 0 34 32" fill="none" xmlns="http://www.w3.org/2000/svg">
<path fill-rule="evenodd" clip-rule="evenodd" d="M5.27322 6.7481C4 8.50054 4 11.0004 4 16C4 20.9996 4 23.4995 5.27322 25.2519C5.68442 25.8179 6.18213 26.3156 6.7481 26.7268C8.50054 28 11.0004 28 16 28C20.9996 28 23.4995 28 25.2519 26.7268C25.8179 26.3156 26.3156 25.8179 26.7268 25.2519C28 23.4995 28 20.9996 28 16C28 11.0004 28 8.50054 26.7268 6.7481C26.3156 6.18213 25.8179 5.68442 25.2519 5.27322C23.4995 4 20.9996 4 16 4C11.0004 4 8.50054 4 6.7481 5.27322C6.18213 5.68442 5.68442 6.18213 5.27322 6.7481ZM18.6133 9.19811C18.9905 8.81944 19.4511 8.46118 20.0644 8.36347C20.1902 8.34342 20.3173 8.33333 20.4446 8.33333C20.5719 8.33333 20.6989 8.34342 20.8247 8.36347C21.438 8.46118 21.8986 8.81943 22.2758 9.1981C22.6394 9.56309 23.0406 10.0692 23.5058 10.656L24.7837 12.2676C25.1268 12.7004 25.0542 13.3293 24.6214 13.6725C24.1886 14.0156 23.5597 13.9429 23.2165 13.5102L21.974 11.9431C21.7719 11.6882 21.5979 11.4692 21.4446 11.2806V21.7778C21.4446 22.3301 20.9968 22.7778 20.4446 22.7778C19.8923 22.7778 19.4446 22.3301 19.4446 21.7778V11.2806C19.2912 11.4692 19.1172 11.6882 18.9151 11.9431L17.6726 13.5102C17.3294 13.9429 16.7005 14.0156 16.2677 13.6725C15.8349 13.3293 15.7623 12.7004 16.1054 12.2676L17.3833 10.656C17.8485 10.0692 18.2497 9.5631 18.6133 9.19811ZM12.5556 10.222C12.5556 9.66972 12.1078 9.222 11.5556 9.222C11.0033 9.222 10.5556 9.66972 10.5556 10.222L10.5556 20.7192C10.4022 20.5306 10.2282 20.3116 10.0261 20.0567L8.78358 18.4896C8.44045 18.0568 7.81146 17.9842 7.37871 18.3273C6.94595 18.6704 6.87329 19.2994 7.21642 19.7322L8.49426 21.3438C8.95948 21.9306 9.36071 22.4367 9.7243 22.8017C10.1015 23.1804 10.5621 23.5386 11.1754 23.6363C11.3012 23.6564 11.4283 23.6665 11.5556 23.6665C11.6829 23.6665 11.8099 23.6564 11.9357 23.6363C12.549 23.5386 13.0096 23.1803 13.3868 22.8017C13.7504 22.4367 14.1516 21.9306 14.6168 21.3438L15.8947 19.7322C16.2378 19.2994 16.1652 18.6704 15.7324 18.3273C15.2996 17.9842 14.6707 18.0568 14.3275 18.4896L13.085 20.0567C12.8829 20.3116 12.7089 20.5306 12.5556 20.7192L12.5556 10.222Z" fill="url(#paint0_linear_107_419)"/>
<path fill-rule="evenodd" clip-rule="evenodd" d="M6.87322 6.7481C5.6 8.50054 5.6 11.0004 5.6 16C5.6 20.9996 5.6 23.4995 6.87322 25.2519C7.28442 25.8179 7.78213 26.3156 8.3481 26.7268C10.1005 28 12.6004 28 17.6 28C22.5996 28 25.0995 28 26.8519 26.7268C27.4179 26.3156 27.9156 25.8179 28.3268 25.2519C29.6 23.4995 29.6 20.9996 29.6 16C29.6 11.0004 29.6 8.50054 28.3268 6.7481C27.9156 6.18213 27.4179 5.68442 26.8519 5.27322C25.0995 4 22.5996 4 17.6 4C12.6004 4 10.1005 4 8.3481 5.27322C7.78213 5.68442 7.28442 6.18213 6.87322 6.7481ZM20.2133 9.19811C20.5905 8.81944 21.0511 8.46118 21.6644 8.36347C21.7902 8.34342 21.9173 8.33333 22.0446 8.33333C22.1719 8.33333 22.2989 8.34342 22.4247 8.36347C23.038 8.46118 23.4986 8.81943 23.8758 9.1981C24.2394 9.56309 24.6406 10.0692 25.1058 10.656L26.3837 12.2676C26.7268 12.7004 26.6542 13.3293 26.2214 13.6725C25.7886 14.0156 25.1597 13.9429 24.8165 13.5102L23.574 11.9431C23.3719 11.6882 23.1979 11.4692 23.0446 11.2806V21.7778C23.0446 22.3301 22.5968 22.7778 22.0446 22.7778C21.4923 22.7778 21.0446 22.3301 21.0446 21.7778V11.2806C20.8912 11.4692 20.7172 11.6882 20.5151 11.9431L19.2726 13.5102C18.9294 13.9429 18.3005 14.0156 17.8677 13.6725C17.4349 13.3293 17.3623 12.7004 17.7054 12.2676L18.9833 10.656C19.4485 10.0692 19.8497 9.5631 20.2133 9.19811ZM14.1556 10.222C14.1556 9.66972 13.7078 9.222 13.1556 9.222C12.6033 9.222 12.1556 9.66972 12.1556 10.222L12.1556 20.7192C12.0022 20.5306 11.8282 20.3116 11.6261 20.0567L10.3836 18.4896C10.0404 18.0568 9.41147 17.9842 8.97871 18.3273C8.54595 18.6704 8.47329 19.2994 8.81642 19.7322L10.0943 21.3438C10.5595 21.9306 10.9607 22.4367 11.3243 22.8017C11.7015 23.1804 12.1621 23.5386 12.7754 23.6363C12.9012 23.6564 13.0283 23.6665 13.1556 23.6665C13.2829 23.6665 13.4099 23.6564 13.5357 23.6363C14.149 23.5386 14.6096 23.1803 14.9868 22.8017C15.3504 22.4367 15.7516 21.9306 16.2168 21.3438L17.4947 19.7322C17.8378 19.2994 17.7652 18.6704 17.3324 18.3273C16.8996 17.9842 16.2707 18.0568 15.9275 18.4896L14.685 20.0567C14.4829 20.3116 14.3089 20.5306 14.1556 20.7192L14.1556 10.222Z" fill="white"/>
<defs>
<linearGradient id="paint0_linear_107_419" x1="-8.78109" y1="15.9823" x2="15.1336" y2="41.4913" gradientUnits="userSpaceOnUse">
<stop stop-color="#00FFAA"/>
<stop offset="0.530854" stop-color="#4579F5"/>
<stop offset="0.999815" stop-color="#9C42F5"/>
</linearGradient>
</defs>
</svg>
