<svg width="25" height="24" viewBox="0 0 25 24" fill="none" xmlns="http://www.w3.org/2000/svg">
<g clip-path="url(#clip0_1007_18389)">
<mask id="mask0_1007_18389" style="mask-type:luminance" maskUnits="userSpaceOnUse" x="0" y="0" width="25" height="24">
<path d="M24.5 0H0.5V24H24.5V0Z" fill="white"/>
</mask>
<g mask="url(#mask0_1007_18389)">
<path d="M0.5 11.52C0.5 6.0894 0.5 3.37413 2.18707 1.68707C3.87413 0 6.5894 0 12.02 0H12.98C18.4106 0 21.1259 0 22.813 1.68707C24.5 3.37413 24.5 6.0894 24.5 11.52V12.48C24.5 17.9106 24.5 20.6259 22.813 22.313C21.1259 24 18.4106 24 12.98 24H12.02C6.5894 24 3.87413 24 2.18707 22.313C0.5 20.6259 0.5 17.9106 0.5 12.48V11.52Z" fill="#0077FF"/>
<path d="M13.2702 17.2907C7.80024 17.2907 4.68029 13.5407 4.55029 7.30078H7.29029C7.38029 11.8807 9.40024 13.8207 11.0002 14.2207V7.30078H13.5803V11.2507C15.1603 11.0807 16.8201 9.28078 17.3801 7.30078H19.9601C19.5301 9.74078 17.7301 11.5407 16.4501 12.2807C17.7301 12.8807 19.7802 14.4507 20.5602 17.2907H17.7201C17.1101 15.3907 15.5903 13.9207 13.5803 13.7207V17.2907H13.2702Z" fill="white"/>
</g>
</g>
<defs>
<clipPath id="clip0_1007_18389">
<rect width="24" height="24" fill="white" transform="translate(0.5)"/>
</clipPath>
</defs>
</svg>
