<svg width="25" height="24" viewBox="0 0 25 24" fill="none" xmlns="http://www.w3.org/2000/svg">
<g clip-path="url(#clip0_1007_18396)">
<mask id="mask0_1007_18396" style="mask-type:luminance" maskUnits="userSpaceOnUse" x="0" y="0" width="25" height="24">
<path d="M24.98 0H0.97998V24H24.98V0Z" fill="white"/>
</mask>
<g mask="url(#mask0_1007_18396)">
<path d="M12.98 2.16094C16.1862 2.16094 16.5659 2.175 17.8269 2.23125C18.9987 2.28281 19.6315 2.47969 20.0534 2.64375C20.6112 2.85938 21.0144 3.12188 21.4315 3.53906C21.8534 3.96094 22.1112 4.35938 22.3269 4.91719C22.4909 5.33906 22.6878 5.97656 22.7394 7.14375C22.7956 8.40937 22.8097 8.78906 22.8097 11.9906C22.8097 15.1969 22.7956 15.5766 22.7394 16.8375C22.6878 18.0094 22.4909 18.6422 22.3269 19.0641C22.1112 19.6219 21.8487 20.025 21.4315 20.4422C21.0097 20.8641 20.6112 21.1219 20.0534 21.3375C19.6315 21.5016 18.994 21.6984 17.8269 21.75C16.5612 21.8063 16.1815 21.8203 12.98 21.8203C9.77373 21.8203 9.39404 21.8063 8.1331 21.75C6.96123 21.6984 6.32842 21.5016 5.90654 21.3375C5.34873 21.1219 4.9456 20.8594 4.52842 20.4422C4.10654 20.0203 3.84873 19.6219 3.6331 19.0641C3.46904 18.6422 3.27217 18.0047 3.2206 16.8375C3.16435 15.5719 3.15029 15.1922 3.15029 11.9906C3.15029 8.78438 3.16435 8.40469 3.2206 7.14375C3.27217 5.97187 3.46904 5.33906 3.6331 4.91719C3.84873 4.35938 4.11123 3.95625 4.52842 3.53906C4.95029 3.11719 5.34873 2.85938 5.90654 2.64375C6.32842 2.47969 6.96592 2.28281 8.1331 2.23125C9.39404 2.175 9.77373 2.16094 12.98 2.16094ZM12.98 0C9.72217 0 9.31435 0.0140625 8.03467 0.0703125C6.75967 0.126563 5.8831 0.332812 5.12373 0.628125C4.33154 0.9375 3.66123 1.34531 2.9956 2.01562C2.32529 2.68125 1.91748 3.35156 1.6081 4.13906C1.31279 4.90313 1.10654 5.775 1.05029 7.05C0.994042 8.33437 0.97998 8.74219 0.97998 12C0.97998 15.2578 0.994042 15.6656 1.05029 16.9453C1.10654 18.2203 1.31279 19.0969 1.6081 19.8563C1.91748 20.6484 2.32529 21.3188 2.9956 21.9844C3.66123 22.65 4.33154 23.0625 5.11904 23.3672C5.8831 23.6625 6.75498 23.8687 8.02998 23.925C9.30967 23.9812 9.71748 23.9953 12.9753 23.9953C16.2331 23.9953 16.6409 23.9812 17.9206 23.925C19.1956 23.8687 20.0722 23.6625 20.8315 23.3672C21.619 23.0625 22.2894 22.65 22.955 21.9844C23.6206 21.3188 24.0331 20.6484 24.3378 19.8609C24.6331 19.0969 24.8394 18.225 24.8956 16.95C24.9519 15.6703 24.9659 15.2625 24.9659 12.0047C24.9659 8.74688 24.9519 8.33906 24.8956 7.05938C24.8394 5.78438 24.6331 4.90781 24.3378 4.14844C24.0425 3.35156 23.6347 2.68125 22.9644 2.01562C22.2987 1.35 21.6284 0.9375 20.8409 0.632812C20.0769 0.3375 19.205 0.13125 17.93 0.075C16.6456 0.0140625 16.2378 0 12.98 0Z" fill="url(#paint0_linear_1007_18396)"/>
<path d="M12.98 5.83594C9.57685 5.83594 6.81592 8.59688 6.81592 12C6.81592 15.4031 9.57685 18.1641 12.98 18.1641C16.3831 18.1641 19.144 15.4031 19.144 12C19.144 8.59688 16.3831 5.83594 12.98 5.83594ZM12.98 15.9984C10.7722 15.9984 8.98154 14.2078 8.98154 12C8.98154 9.79219 10.7722 8.00156 12.98 8.00156C15.1878 8.00156 16.9784 9.79219 16.9784 12C16.9784 14.2078 15.1878 15.9984 12.98 15.9984Z" fill="url(#paint1_linear_1007_18396)"/>
<path d="M20.8269 5.59141C20.8269 6.38828 20.18 7.03047 19.3878 7.03047C18.5909 7.03047 17.9487 6.38359 17.9487 5.59141C17.9487 4.79453 18.5956 4.15234 19.3878 4.15234C20.18 4.15234 20.8269 4.79922 20.8269 5.59141Z" fill="#C900AF"/>
</g>
</g>
<defs>
<linearGradient id="paint0_linear_1007_18396" x1="3.05876" y1="22.5556" x2="23.6149" y2="1.60772" gradientUnits="userSpaceOnUse">
<stop stop-color="#FFC926"/>
<stop offset="0.307292" stop-color="#FF821D"/>
<stop offset="0.583333" stop-color="#FE2F59"/>
<stop offset="0.786458" stop-color="#D900AF"/>
<stop offset="1" stop-color="#B400C7"/>
</linearGradient>
<linearGradient id="paint1_linear_1007_18396" x1="7.88435" y1="17.4244" x2="18.4454" y2="6.65781" gradientUnits="userSpaceOnUse">
<stop stop-color="#FFC926"/>
<stop offset="0.307292" stop-color="#FF821D"/>
<stop offset="0.583333" stop-color="#FE2F59"/>
<stop offset="0.786458" stop-color="#D900AF"/>
<stop offset="1" stop-color="#B400C7"/>
</linearGradient>
<clipPath id="clip0_1007_18396">
<rect width="24" height="24" fill="white" transform="translate(0.5)"/>
</clipPath>
</defs>
</svg>
