<svg width="24" height="24" viewBox="0 0 24 24" fill="none" xmlns="http://www.w3.org/2000/svg">
<g clip-path="url(#clip0_1007_18404)">
<path d="M19.817 4.4921C18.2873 3.80147 16.647 3.29265 14.9319 3.00122C14.9007 2.9956 14.8695 3.00965 14.8534 3.03777C14.6424 3.40697 14.4087 3.88862 14.2451 4.26719C12.4004 3.99545 10.5652 3.99545 8.75832 4.26719C8.59465 3.8802 8.35248 3.40697 8.14057 3.03777C8.12448 3.01059 8.09328 2.99654 8.06205 3.00122C6.34791 3.29172 4.70756 3.80055 3.17693 4.4921C3.16368 4.49773 3.15233 4.50711 3.14479 4.51928C0.033392 9.09312 -0.81895 13.5546 -0.40082 17.9607C-0.398928 17.9822 -0.38663 18.0028 -0.369602 18.0159C1.68321 19.4993 3.67171 20.3999 5.62328 20.9967C5.65451 21.0061 5.68761 20.9949 5.70748 20.9696C6.16913 20.3493 6.58064 19.6951 6.93348 19.0073C6.9543 18.9671 6.93442 18.9193 6.89186 18.9033C6.23913 18.6597 5.6176 18.3626 5.01973 18.0253C4.97244 17.9981 4.96865 17.9316 5.01216 17.8997C5.13797 17.8069 5.26382 17.7105 5.38396 17.613C5.40569 17.5952 5.43598 17.5914 5.46153 17.6026C9.38928 19.3672 13.6415 19.3672 17.523 17.6026C17.5485 17.5905 17.5788 17.5943 17.6015 17.6121C17.7216 17.7095 17.8475 17.8069 17.9742 17.8997C18.0177 17.9316 18.0149 17.9981 17.9676 18.0253C17.3697 18.3692 16.7482 18.6597 16.0945 18.9024C16.052 18.9183 16.033 18.9671 16.0538 19.0073C16.4143 19.6943 16.8258 20.3483 17.2789 20.9686C17.2978 20.9949 17.3319 21.0061 17.3631 20.9967C19.3241 20.3999 21.3126 19.4993 23.3654 18.0159C23.3834 18.0028 23.3948 17.9831 23.3967 17.9616C23.8971 12.8677 22.5585 8.4428 19.8482 4.52021C19.8416 4.50711 19.8303 4.49773 19.817 4.4921ZM7.52002 15.2778C6.3375 15.2778 5.36313 14.2095 5.36313 12.8977C5.36313 11.5857 6.3186 10.5175 7.52002 10.5175C8.73087 10.5175 9.6958 11.5951 9.6769 12.8977C9.6769 14.2095 8.72141 15.2778 7.52002 15.2778ZM15.4947 15.2778C14.3123 15.2778 13.3379 14.2095 13.3379 12.8977C13.3379 11.5857 14.2933 10.5175 15.4947 10.5175C16.7056 10.5175 17.6705 11.5951 17.6516 12.8977C17.6516 14.2095 16.7056 15.2778 15.4947 15.2778Z" fill="#5865F2"/>
</g>
<defs>
<clipPath id="clip0_1007_18404">
<rect width="24" height="24" fill="white"/>
</clipPath>
</defs>
</svg>
