<svg width="25" height="24" viewBox="0 0 25 24" fill="none" xmlns="http://www.w3.org/2000/svg">
<g clip-path="url(#clip0_1007_18380)">
<mask id="mask0_1007_18380" style="mask-type:luminance" maskUnits="userSpaceOnUse" x="0" y="0" width="25" height="24">
<path d="M24.5 0H0.5V24H24.5V0Z" fill="white"/>
</mask>
<g mask="url(#mask0_1007_18380)">
<path d="M24.0221 6.18492C23.8864 5.67434 23.619 5.20834 23.2466 4.83358C22.8742 4.45881 22.41 4.18842 21.9003 4.04947C20.0239 3.54492 12.5239 3.54492 12.5239 3.54492C12.5239 3.54492 5.02392 3.54492 3.14756 4.04947C2.63785 4.18842 2.17358 4.45881 1.80121 4.83358C1.42884 5.20834 1.16143 5.67434 1.02574 6.18492C0.523926 8.06947 0.523926 11.9995 0.523926 11.9995C0.523926 11.9995 0.523926 15.9295 1.02574 17.8141C1.16143 18.3246 1.42884 18.7906 1.80121 19.1654C2.17358 19.5402 2.63785 19.8106 3.14756 19.9495C5.02392 20.4541 12.5239 20.4541 12.5239 20.4541C12.5239 20.4541 20.0239 20.4541 21.9003 19.9495C22.41 19.8106 22.8742 19.5402 23.2466 19.1654C23.619 18.7906 23.8864 18.3246 24.0221 17.8141C24.5239 15.9295 24.5239 11.9995 24.5239 11.9995C24.5239 11.9995 24.5239 8.06947 24.0221 6.18492Z" fill="#FF0302"/>
<path d="M10.0693 15.5689V8.43164L16.3421 12.0002L10.0693 15.5689Z" fill="#FEFEFE"/>
</g>
</g>
<defs>
<clipPath id="clip0_1007_18380">
<rect width="24" height="24" fill="white" transform="translate(0.5)"/>
</clipPath>
</defs>
</svg>
