<svg width="25" height="24" viewBox="0 0 25 24" fill="none" xmlns="http://www.w3.org/2000/svg">
<g clip-path="url(#clip0_1007_18406)">
<path d="M12.5 24C19.1274 24 24.5 18.6274 24.5 12C24.5 5.37258 19.1274 0 12.5 0C5.87258 0 0.5 5.37258 0.5 12C0.5 18.6274 5.87258 24 12.5 24Z" fill="url(#paint0_linear_1007_18406)"/>
<path fill-rule="evenodd" clip-rule="evenodd" d="M5.93201 11.8739C9.43026 10.3498 11.763 9.34501 12.9301 8.85954C16.2627 7.47343 16.9551 7.23264 17.4065 7.22469C17.5058 7.22295 17.7277 7.24755 17.8715 7.36421C17.9929 7.46272 18.0263 7.59579 18.0423 7.68918C18.0583 7.78258 18.0782 7.99534 18.0623 8.16158C17.8817 10.0591 17.1003 14.6637 16.7028 16.789C16.5346 17.6882 16.2034 17.9897 15.8827 18.0192C15.1858 18.0834 14.6567 17.5587 13.9817 17.1163C12.9256 16.4239 12.3289 15.993 11.3037 15.3174C10.119 14.5366 10.887 14.1075 11.5622 13.4062C11.7389 13.2227 14.8093 10.43 14.8687 10.1766C14.8762 10.1449 14.8831 10.0268 14.8129 9.96446C14.7427 9.90209 14.6392 9.92342 14.5644 9.94038C14.4585 9.96442 12.7713 11.0796 9.50276 13.2859C9.02385 13.6148 8.59007 13.775 8.20141 13.7666C7.77295 13.7574 6.94876 13.5244 6.33606 13.3252C5.58456 13.0809 4.98728 12.9518 5.03929 12.5369C5.06638 12.3208 5.36395 12.0998 5.93201 11.8739Z" fill="white"/>
</g>
<defs>
<linearGradient id="paint0_linear_1007_18406" x1="12.5" y1="0" x2="12.5" y2="23.822" gradientUnits="userSpaceOnUse">
<stop stop-color="#2AABEE"/>
<stop offset="1" stop-color="#229ED9"/>
</linearGradient>
<clipPath id="clip0_1007_18406">
<rect width="24" height="24" fill="white" transform="translate(0.5)"/>
</clipPath>
</defs>
</svg>
