<svg width="24" height="24" viewBox="0 0 24 24" fill="none" xmlns="http://www.w3.org/2000/svg">
<g clip-path="url(#clip0_1007_18387)">
<path d="M7.04752 22.25C16.1042 22.25 21.0578 14.5547 21.0578 7.88144C21.0578 7.66287 21.0578 7.44529 21.0434 7.22869C22.007 6.51381 22.8389 5.62866 23.5 4.6147C22.6014 5.02329 21.648 5.29112 20.6718 5.40923C21.6998 4.77819 22.4692 3.78552 22.8366 2.61606C21.8701 3.20434 20.8126 3.6189 19.7099 3.84183C18.9675 3.03222 17.9856 2.49611 16.9162 2.31647C15.8468 2.13683 14.7494 2.32368 13.794 2.8481C12.8385 3.37251 12.0782 4.20526 11.6307 5.21748C11.1833 6.22969 11.0735 7.36494 11.3186 8.44756C9.3609 8.34685 7.44576 7.82507 5.69745 6.91609C3.94915 6.00712 2.40676 4.73127 1.1704 3.17135C0.54073 4.28306 0.347872 5.59912 0.6311 6.85154C0.91433 8.10397 1.65234 9.1986 2.69488 9.91257C1.91123 9.88903 1.14465 9.67221 0.46 9.28049V9.34449C0.460311 10.5104 0.85385 11.6403 1.57387 12.5426C2.29389 13.4449 3.29606 14.064 4.4104 14.2948C3.68548 14.4976 2.92487 14.5272 2.18704 14.3815C2.50181 15.3848 3.11443 16.2622 3.93924 16.891C4.76405 17.5197 5.75983 17.8685 6.78736 17.8884C5.76644 18.7115 4.59731 19.3199 3.34687 19.6791C2.09643 20.0382 0.78921 20.141 -0.5 19.9816C1.75183 21.4636 4.37192 22.2497 7.04752 22.2461" fill="#1DA1F2"/>
</g>
<defs>
<clipPath id="clip0_1007_18387">
<rect width="24" height="24" fill="white"/>
</clipPath>
</defs>
</svg>
