<svg width="48" height="48" viewBox="0 0 48 48" fill="none" xmlns="http://www.w3.org/2000/svg">
<rect width="48" height="48" rx="8" fill="#191C20"/>
<path d="M33.3943 10.0381L31.1602 18.1211C29.3595 14.7446 26.3352 12.1705 22.7461 10.9214L23.7287 7.3687C23.9338 6.62593 24.7033 6.18985 25.4461 6.39493L32.418 8.31878C33.163 8.52359 33.5991 9.29309 33.3943 10.0381Z" fill="#292737"/>
<path d="M33.3943 10.0381L31.1602 18.1211C29.3595 14.7446 26.3352 12.1705 22.7461 10.9214L23.7287 7.3687C23.9338 6.62593 24.7033 6.18985 25.4461 6.39493L32.418 8.31878C33.163 8.52359 33.5991 9.29309 33.3943 10.0381Z" fill="url(#paint0_linear_874_19674)"/>
<path d="M23.9859 9.65261L25.5614 7.55495L26.1028 7.71022L26.3233 10.323L25.8112 10.1761L25.7507 9.54513L24.8838 9.29649L24.5017 9.80053L23.9859 9.65261ZM25.066 8.93704L25.7866 9.14372L25.6962 8.09244L25.066 8.93704Z" fill="#262632"/>
<path d="M38.8792 14.839L34.6292 22.0682C33.7638 18.3408 31.5087 15.0716 28.3652 12.9362L30.2339 9.75886C30.6242 9.09448 31.4804 8.87242 32.1448 9.26275L38.3812 12.9255C39.0478 13.3162 39.2699 14.1723 38.8792 14.839Z" fill="#292737"/>
<path d="M38.8792 14.839L34.6292 22.0682C33.7638 18.3408 31.5087 15.0716 28.3652 12.9362L30.2339 9.75886C30.6242 9.09448 31.4804 8.87242 32.1448 9.26275L38.3812 12.9255C39.0478 13.3162 39.2699 14.1723 38.8792 14.839Z" fill="url(#paint1_linear_874_19674)"/>
<path d="M29.8911 12.0316L31.9558 10.4131L32.4386 10.7032L31.9754 13.2841L31.5188 13.0096L31.6236 12.3845L30.8506 11.92L30.351 12.3079L29.8911 12.0316ZM31.1197 11.6199L31.7622 12.0061L31.947 10.9672L31.1197 11.6199Z" fill="#262632"/>
<g filter="url(#filter0_d_874_19674)">
<path d="M41.6349 21.5848L35.3966 27.1892C35.6997 23.3746 34.5396 19.5763 32.1896 16.5898L34.9321 14.1269C35.5052 13.6118 36.3884 13.6592 36.9035 14.2322L41.7392 19.6104C42.2564 20.1844 42.209 21.0676 41.6349 21.5848Z" fill="#292737"/>
</g>
<path d="M41.6353 21.5848L35.397 27.1891C35.7001 23.3745 34.5399 19.5763 32.1899 16.5897L34.9324 14.1268C35.5055 13.6117 36.3887 13.6591 36.9038 14.2322L41.7396 19.6103C42.2567 20.1844 42.2093 21.0676 41.6353 21.5848Z" fill="url(#paint2_linear_874_19674)"/>
<path d="M33.9177 16.1894L36.3754 15.2716L36.7477 15.6941L35.5253 18.0138L35.1731 17.6141L35.4622 17.05L34.866 16.3733L34.2725 16.5919L33.9177 16.1894ZM35.2132 16.1688L35.7088 16.7312L36.1993 15.797L35.2132 16.1688Z" fill="#262632"/>
<path d="M24.2027 11.0126C24.2027 11.0126 24.1869 11.0081 24.1802 11.0059C22.931 10.6718 21.6165 10.4924 20.2614 10.4924C18.9063 10.4924 17.5918 10.6718 16.3427 11.0059C16.3359 11.0081 16.3269 11.0103 16.3201 11.0126C9.93919 12.7344 5.24707 18.5344 5.24707 25.4218C5.24707 33.6678 11.9685 40.3511 20.2614 40.3511C28.5544 40.3511 35.2758 33.6678 35.2758 25.4218C35.2758 18.5344 30.5836 12.7344 24.2027 11.0126Z" fill="#2A2639"/>
<path d="M24.2027 11.0126C24.2027 11.0126 24.1869 11.0081 24.1802 11.0059C22.931 10.6718 21.6165 10.4924 20.2614 10.4924C18.9063 10.4924 17.5918 10.6718 16.3427 11.0059C16.3359 11.0081 16.3269 11.0103 16.3201 11.0126C9.93919 12.7344 5.24707 18.5344 5.24707 25.4218C5.24707 33.6678 11.9685 40.3511 20.2614 40.3511C28.5544 40.3511 35.2758 33.6678 35.2758 25.4218C35.2758 18.5344 30.5836 12.7344 24.2027 11.0126Z" fill="url(#paint3_linear_874_19674)"/>
<g filter="url(#filter1_d_874_19674)">
<path d="M20.2618 35.6541C25.9452 35.6541 30.5525 31.0729 30.5525 25.4217C30.5525 19.7705 25.9452 15.1893 20.2618 15.1893C14.5785 15.1893 9.97119 19.7705 9.97119 25.4217C9.97119 31.0729 14.5785 35.6541 20.2618 35.6541Z" fill="url(#paint4_radial_874_19674)" shape-rendering="crispEdges"/>
</g>
<g filter="url(#filter2_f_874_19674)">
<path d="M26.0305 19.4604C26.1039 19.4604 26.1585 19.525 26.1459 19.598L25.7705 21.6518C25.7412 21.7811 25.6258 21.8728 25.4937 21.8728H17.2337L16.0531 28.4535C16.0007 28.7412 16.2229 29.0039 16.5165 29.0039H24.2523C24.3718 29.0039 24.462 29.1103 24.441 29.227L24.0783 31.2225C24.0615 31.3038 23.9902 31.3622 23.9063 31.3622L16.0153 31.381C14.5097 31.3851 13.3668 30.0361 13.6269 28.5619L15.0696 20.7302C15.2059 19.9941 15.8497 19.4604 16.6025 19.4604H26.0285H26.0305Z" stroke="#00FFFF" stroke-width="0.382369" stroke-linecap="round" stroke-linejoin="round"/>
</g>
<g filter="url(#filter3_f_874_19674)">
<path d="M23.7052 26.6347H17.5562C17.4737 26.6347 17.4103 26.5534 17.4256 26.4658L17.7751 24.2894C17.7867 24.2206 17.8424 24.1685 17.9057 24.1685H24.0547C24.1373 24.1685 24.2006 24.2498 24.1853 24.3374L23.8358 26.5138C23.8242 26.5826 23.7686 26.6347 23.7052 26.6347Z" stroke="#00FFFF" stroke-width="0.382369" stroke-miterlimit="10"/>
</g>
<path d="M26.0305 19.4604C26.1039 19.4604 26.1585 19.525 26.1459 19.598L25.7705 21.6518C25.7412 21.7811 25.6258 21.8728 25.4937 21.8728H17.2337L16.0531 28.4535C16.0007 28.7412 16.2229 29.0039 16.5165 29.0039H24.2523C24.3718 29.0039 24.462 29.1103 24.441 29.227L24.0783 31.2225C24.0615 31.3038 23.9902 31.3622 23.9063 31.3622L16.0153 31.381C14.5097 31.3851 13.3668 30.0361 13.6269 28.5619L15.0696 20.7302C15.2059 19.9941 15.8497 19.4604 16.6025 19.4604H26.0285H26.0305Z" stroke="white" stroke-width="0.382369" stroke-linecap="round" stroke-linejoin="round"/>
<path d="M23.7052 26.6347H17.5562C17.4737 26.6347 17.4103 26.5534 17.4256 26.4658L17.7751 24.2894C17.7867 24.2206 17.8424 24.1685 17.9057 24.1685H24.0547C24.1373 24.1685 24.2006 24.2498 24.1853 24.3374L23.8358 26.5138C23.8242 26.5826 23.7686 26.6347 23.7052 26.6347Z" stroke="white" stroke-width="0.382369" stroke-miterlimit="10"/>
<path d="M23.6711 12.9608C23.6711 12.9608 23.6576 12.9563 23.6508 12.9541C22.5708 12.6648 21.4344 12.5101 20.2619 12.5101C19.0895 12.5101 17.9531 12.6648 16.8731 12.9541C16.8663 12.9541 16.8595 12.9585 16.8528 12.9608C11.3331 14.4495 7.27686 19.467 7.27686 25.4217C7.27686 32.5534 13.0896 38.3333 20.2619 38.3333C27.4343 38.3333 33.247 32.5534 33.247 25.4217C33.247 19.4648 29.1885 14.4495 23.6711 12.9608Z" stroke="#4579F5" stroke-width="0.573553" stroke-miterlimit="10"/>
<g filter="url(#filter4_d_874_19674)">
<path d="M12.8169 12.4564C14.2284 13.9966 14.1855 16.3821 12.6884 17.8708C11.1935 19.3572 8.78992 19.3998 7.24316 17.9985C7.24542 17.9918 7.25218 17.9851 7.25444 17.9784C7.89929 16.8641 8.70198 15.8126 9.66025 14.8598C10.6185 13.9069 11.676 13.1088 12.7966 12.4676C12.8034 12.4653 12.8101 12.4586 12.8169 12.4564Z" fill="#00FFFF" fill-opacity="0.5" shape-rendering="crispEdges"/>
</g>
<g filter="url(#filter5_d_874_19674)">
<path d="M33.2806 32.8046C31.7316 31.4011 29.3326 31.4437 27.8354 32.9324C26.3405 34.4188 26.2977 36.8087 27.7069 38.3467C27.7136 38.3445 27.7204 38.3378 27.7272 38.3355C28.8478 37.6943 29.9053 36.8962 30.8635 35.9433C31.8218 34.9905 32.6245 33.939 33.2693 32.8247C33.2716 32.818 33.2784 32.8113 33.2806 32.8046Z" fill="#00FFFF" fill-opacity="0.5" shape-rendering="crispEdges"/>
</g>
<g filter="url(#filter6_d_874_19674)">
<path d="M33.2806 17.9985C31.7316 19.402 29.3326 19.3594 27.8354 17.8708C26.3405 16.3843 26.2977 13.9944 27.7069 12.4564C27.7136 12.4586 27.7204 12.4653 27.7272 12.4676C28.8478 13.1088 29.9053 13.9069 30.8635 14.8598C31.8218 15.8126 32.6245 16.8641 33.2693 17.9784C33.2716 17.9851 33.2784 17.9918 33.2806 17.9985Z" fill="#00FFFF" fill-opacity="0.5" shape-rendering="crispEdges"/>
</g>
<g filter="url(#filter7_d_874_19674)">
<path d="M12.8169 38.3467C14.2284 36.8065 14.1855 34.421 12.6884 32.9324C11.1935 31.4459 8.78992 31.4033 7.24316 32.8046C7.24542 32.8113 7.25218 32.818 7.25444 32.8247C7.89929 33.939 8.70198 34.9905 9.66025 35.9433C10.6185 36.8962 11.676 37.6943 12.7966 38.3355C12.8034 38.3378 12.8101 38.3445 12.8169 38.3467Z" fill="#00FFFF" fill-opacity="0.5" shape-rendering="crispEdges"/>
</g>
<path d="M24.1243 11.2884L24.1243 11.2885L24.128 11.2895C30.3879 12.9787 34.989 18.6683 34.989 25.4218C34.989 33.5079 28.3975 40.0644 20.2614 40.0644C12.1253 40.0644 5.53385 33.5079 5.53385 25.4218C5.53385 18.6683 10.1349 12.9787 16.3948 11.2895L16.4027 11.2873L16.4078 11.2857L16.4098 11.2851L16.4183 11.2826C16.4195 11.2823 16.421 11.2818 16.4226 11.2813C17.6462 10.9547 18.9338 10.7792 20.2614 10.7792C21.5889 10.7792 22.8765 10.9546 24.1 11.2813C24.1057 11.283 24.1108 11.2845 24.1135 11.2853L24.121 11.2875L24.1233 11.2881L24.124 11.2883L24.1242 11.2884L24.1243 11.2884L24.1243 11.2884L24.1243 11.2884ZM16.4066 11.286L16.4066 11.286L16.4066 11.286Z" stroke="#00FFFF" stroke-width="0.573553"/>
<path d="M21.1664 12.8515C19.9359 12.7598 18.9851 11.7986 18.8727 10.617C20.5149 10.466 22.172 10.5831 23.7741 10.9632C23.4949 12.122 22.4002 12.9434 21.1664 12.8515Z" fill="white"/>
<path d="M19.2741 38.1069C20.5046 38.1986 21.4554 39.1598 21.5678 40.3414C19.9256 40.4924 18.2685 40.3753 16.6664 39.9951C16.9456 38.8363 18.0403 38.0149 19.2741 38.1069Z" fill="white"/>
<path d="M7.52265 24.5384C7.43041 25.762 6.4638 26.7074 5.27545 26.8192C5.12355 25.1863 5.24136 23.5385 5.62366 21.9454C6.78905 22.2231 7.61512 23.3116 7.52265 24.5384Z" fill="white"/>
<path d="M32.9218 26.4202C33.014 25.1966 33.9806 24.2512 35.169 24.1394C35.3209 25.7723 35.2031 27.4201 34.8208 29.0131C33.6554 28.7355 32.8293 27.647 32.9218 26.4202Z" fill="white"/>
<g filter="url(#filter8_f_874_19674)">
<path d="M21.1664 12.8515C19.9359 12.7598 18.9851 11.7986 18.8727 10.617C20.5149 10.466 22.172 10.5831 23.7741 10.9632C23.4949 12.122 22.4002 12.9434 21.1664 12.8515Z" fill="white"/>
</g>
<g filter="url(#filter9_f_874_19674)">
<path d="M19.2741 38.1069C20.5046 38.1986 21.4554 39.1598 21.5678 40.3414C19.9256 40.4924 18.2685 40.3753 16.6664 39.9951C16.9456 38.8363 18.0403 38.0149 19.2741 38.1069Z" fill="white"/>
</g>
<g filter="url(#filter10_f_874_19674)">
<path d="M7.52265 24.5384C7.43041 25.762 6.4638 26.7074 5.27545 26.8192C5.12355 25.1863 5.24136 23.5385 5.62366 21.9454C6.78905 22.2231 7.61512 23.3116 7.52265 24.5384Z" fill="white"/>
</g>
<g filter="url(#filter11_f_874_19674)">
<path d="M32.9218 26.4202C33.014 25.1966 33.9806 24.2512 35.169 24.1394C35.3209 25.7723 35.2031 27.4201 34.8208 29.0131C33.6554 28.7355 32.8293 27.647 32.9218 26.4202Z" fill="white"/>
</g>
<defs>
<filter id="filter0_d_874_19674" x="31.4166" y="13.7695" width="11.4544" height="14.9654" filterUnits="userSpaceOnUse" color-interpolation-filters="sRGB">
<feFlood flood-opacity="0" result="BackgroundImageFix"/>
<feColorMatrix in="SourceAlpha" type="matrix" values="0 0 0 0 0 0 0 0 0 0 0 0 0 0 0 0 0 0 127 0" result="hardAlpha"/>
<feOffset dy="0.772851"/>
<feGaussianBlur stdDeviation="0.386426"/>
<feComposite in2="hardAlpha" operator="out"/>
<feColorMatrix type="matrix" values="0 0 0 0 0 0 0 0 0 0 0 0 0 0 0 0 0 0 0.25 0"/>
<feBlend mode="normal" in2="BackgroundImageFix" result="effect1_dropShadow_874_19674"/>
<feBlend mode="normal" in="SourceGraphic" in2="effect1_dropShadow_874_19674" result="shape"/>
</filter>
<filter id="filter1_d_874_19674" x="5.76513" y="10.9832" width="28.9937" height="28.8769" filterUnits="userSpaceOnUse" color-interpolation-filters="sRGB">
<feFlood flood-opacity="0" result="BackgroundImageFix"/>
<feColorMatrix in="SourceAlpha" type="matrix" values="0 0 0 0 0 0 0 0 0 0 0 0 0 0 0 0 0 0 127 0" result="hardAlpha"/>
<feOffset/>
<feGaussianBlur stdDeviation="2.10303"/>
<feComposite in2="hardAlpha" operator="out"/>
<feColorMatrix type="matrix" values="0 0 0 0 0 0 0 0 0 0 0 0 0 0 0 0 0 0 0.5 0"/>
<feBlend mode="normal" in2="BackgroundImageFix" result="effect1_dropShadow_874_19674"/>
<feBlend mode="normal" in="SourceGraphic" in2="effect1_dropShadow_874_19674" result="shape"/>
</filter>
<filter id="filter2_f_874_19674" x="12.6337" y="18.5044" width="14.4699" height="13.8325" filterUnits="userSpaceOnUse" color-interpolation-filters="sRGB">
<feFlood flood-opacity="0" result="BackgroundImageFix"/>
<feBlend mode="normal" in="SourceGraphic" in2="BackgroundImageFix" result="shape"/>
<feGaussianBlur stdDeviation="0.382369" result="effect1_foregroundBlur_874_19674"/>
</filter>
<filter id="filter3_f_874_19674" x="16.4677" y="23.2126" width="8.67547" height="4.37802" filterUnits="userSpaceOnUse" color-interpolation-filters="sRGB">
<feFlood flood-opacity="0" result="BackgroundImageFix"/>
<feBlend mode="normal" in="SourceGraphic" in2="BackgroundImageFix" result="shape"/>
<feGaussianBlur stdDeviation="0.382369" result="effect1_foregroundBlur_874_19674"/>
</filter>
<filter id="filter4_d_874_19674" x="5.33132" y="10.5445" width="10.4248" height="10.3858" filterUnits="userSpaceOnUse" color-interpolation-filters="sRGB">
<feFlood flood-opacity="0" result="BackgroundImageFix"/>
<feColorMatrix in="SourceAlpha" type="matrix" values="0 0 0 0 0 0 0 0 0 0 0 0 0 0 0 0 0 0 127 0" result="hardAlpha"/>
<feOffset/>
<feGaussianBlur stdDeviation="0.955922"/>
<feComposite in2="hardAlpha" operator="out"/>
<feColorMatrix type="matrix" values="0 0 0 0 0 0 0 0 0 0 0 0 0 0 0 0 0 0 0.25 0"/>
<feBlend mode="normal" in2="BackgroundImageFix" result="effect1_dropShadow_874_19674"/>
<feBlend mode="normal" in="SourceGraphic" in2="effect1_dropShadow_874_19674" result="shape"/>
</filter>
<filter id="filter5_d_874_19674" x="24.7693" y="29.8711" width="10.4233" height="10.3875" filterUnits="userSpaceOnUse" color-interpolation-filters="sRGB">
<feFlood flood-opacity="0" result="BackgroundImageFix"/>
<feColorMatrix in="SourceAlpha" type="matrix" values="0 0 0 0 0 0 0 0 0 0 0 0 0 0 0 0 0 0 127 0" result="hardAlpha"/>
<feOffset/>
<feGaussianBlur stdDeviation="0.955922"/>
<feComposite in2="hardAlpha" operator="out"/>
<feColorMatrix type="matrix" values="0 0 0 0 0 0 0 0 0 0 0 0 0 0 0 0 0 0 0.25 0"/>
<feBlend mode="normal" in2="BackgroundImageFix" result="effect1_dropShadow_874_19674"/>
<feBlend mode="normal" in="SourceGraphic" in2="effect1_dropShadow_874_19674" result="shape"/>
</filter>
<filter id="filter6_d_874_19674" x="24.7693" y="10.5445" width="10.4233" height="10.3875" filterUnits="userSpaceOnUse" color-interpolation-filters="sRGB">
<feFlood flood-opacity="0" result="BackgroundImageFix"/>
<feColorMatrix in="SourceAlpha" type="matrix" values="0 0 0 0 0 0 0 0 0 0 0 0 0 0 0 0 0 0 127 0" result="hardAlpha"/>
<feOffset/>
<feGaussianBlur stdDeviation="0.955922"/>
<feComposite in2="hardAlpha" operator="out"/>
<feColorMatrix type="matrix" values="0 0 0 0 0 0 0 0 0 0 0 0 0 0 0 0 0 0 0.25 0"/>
<feBlend mode="normal" in2="BackgroundImageFix" result="effect1_dropShadow_874_19674"/>
<feBlend mode="normal" in="SourceGraphic" in2="effect1_dropShadow_874_19674" result="shape"/>
</filter>
<filter id="filter7_d_874_19674" x="5.33132" y="29.8728" width="10.4248" height="10.3858" filterUnits="userSpaceOnUse" color-interpolation-filters="sRGB">
<feFlood flood-opacity="0" result="BackgroundImageFix"/>
<feColorMatrix in="SourceAlpha" type="matrix" values="0 0 0 0 0 0 0 0 0 0 0 0 0 0 0 0 0 0 127 0" result="hardAlpha"/>
<feOffset/>
<feGaussianBlur stdDeviation="0.955922"/>
<feComposite in2="hardAlpha" operator="out"/>
<feColorMatrix type="matrix" values="0 0 0 0 0 0 0 0 0 0 0 0 0 0 0 0 0 0 0.25 0"/>
<feBlend mode="normal" in2="BackgroundImageFix" result="effect1_dropShadow_874_19674"/>
<feBlend mode="normal" in="SourceGraphic" in2="effect1_dropShadow_874_19674" result="shape"/>
</filter>
<filter id="filter8_f_874_19674" x="18.1078" y="9.78835" width="6.43084" height="3.83488" filterUnits="userSpaceOnUse" color-interpolation-filters="sRGB">
<feFlood flood-opacity="0" result="BackgroundImageFix"/>
<feBlend mode="normal" in="SourceGraphic" in2="BackgroundImageFix" result="shape"/>
<feGaussianBlur stdDeviation="0.382369" result="effect1_foregroundBlur_874_19674"/>
</filter>
<filter id="filter9_f_874_19674" x="15.9018" y="37.3351" width="6.43084" height="3.83488" filterUnits="userSpaceOnUse" color-interpolation-filters="sRGB">
<feFlood flood-opacity="0" result="BackgroundImageFix"/>
<feBlend mode="normal" in="SourceGraphic" in2="BackgroundImageFix" result="shape"/>
<feGaussianBlur stdDeviation="0.382369" result="effect1_foregroundBlur_874_19674"/>
</filter>
<filter id="filter10_f_874_19674" x="4.4462" y="21.1807" width="3.84832" height="6.40318" filterUnits="userSpaceOnUse" color-interpolation-filters="sRGB">
<feFlood flood-opacity="0" result="BackgroundImageFix"/>
<feBlend mode="normal" in="SourceGraphic" in2="BackgroundImageFix" result="shape"/>
<feGaussianBlur stdDeviation="0.382369" result="effect1_foregroundBlur_874_19674"/>
</filter>
<filter id="filter11_f_874_19674" x="32.1498" y="23.3747" width="3.84832" height="6.40318" filterUnits="userSpaceOnUse" color-interpolation-filters="sRGB">
<feFlood flood-opacity="0" result="BackgroundImageFix"/>
<feBlend mode="normal" in="SourceGraphic" in2="BackgroundImageFix" result="shape"/>
<feGaussianBlur stdDeviation="0.382369" result="effect1_foregroundBlur_874_19674"/>
</filter>
<linearGradient id="paint0_linear_874_19674" x1="25.814" y1="6.58409" x2="30.6297" y2="15.3352" gradientUnits="userSpaceOnUse">
<stop stop-color="#00FFFF"/>
<stop offset="1" stop-color="#00FFFF" stop-opacity="0"/>
</linearGradient>
<linearGradient id="paint1_linear_874_19674" x1="31.4354" y1="9.33495" x2="37.0166" y2="18.531" gradientUnits="userSpaceOnUse">
<stop stop-color="#00FFFF"/>
<stop offset="1" stop-color="#00FFFF" stop-opacity="0"/>
</linearGradient>
<linearGradient id="paint2_linear_874_19674" x1="35.0313" y1="14.0427" x2="41.0626" y2="22.9508" gradientUnits="userSpaceOnUse">
<stop stop-color="#00FFFF"/>
<stop offset="1" stop-color="#00FFFF" stop-opacity="0"/>
</linearGradient>
<linearGradient id="paint3_linear_874_19674" x1="9.9189" y1="14.5998" x2="30.2923" y2="36.1621" gradientUnits="userSpaceOnUse">
<stop stop-color="#00FFAA"/>
<stop offset="0.06" stop-color="#09EBB4" stop-opacity="0.86"/>
<stop offset="0.19" stop-color="#1EC3CB" stop-opacity="0.56"/>
<stop offset="0.3" stop-color="#2FA3DD" stop-opacity="0.32"/>
<stop offset="0.4" stop-color="#3A8CEA" stop-opacity="0.15"/>
<stop offset="0.47" stop-color="#427EF2" stop-opacity="0.04"/>
<stop offset="0.51" stop-color="#4579F5" stop-opacity="0"/>
<stop offset="0.57" stop-color="#4677F5" stop-opacity="0.02"/>
<stop offset="0.63" stop-color="#4C74F5" stop-opacity="0.08"/>
<stop offset="0.69" stop-color="#556EF5" stop-opacity="0.18"/>
<stop offset="0.77" stop-color="#6167F5" stop-opacity="0.33"/>
<stop offset="0.84" stop-color="#715DF5" stop-opacity="0.51"/>
<stop offset="0.92" stop-color="#8450F5" stop-opacity="0.73"/>
<stop offset="1" stop-color="#9C42F5"/>
</linearGradient>
<radialGradient id="paint4_radial_874_19674" cx="0" cy="0" r="1" gradientUnits="userSpaceOnUse" gradientTransform="translate(20.2618 25.4217) scale(10.2907 10.2324)">
<stop offset="0.833333" stop-color="#4677F5" stop-opacity="0.02"/>
<stop offset="1" stop-color="#00FFFF" stop-opacity="0.5"/>
</radialGradient>
</defs>
</svg>
